<?xml version="1.0" encoding="UTF-8"?>
<svg xmlns="http://www.w3.org/2000/svg" xmlns:xlink="http://www.w3.org/1999/xlink" width="75px" height="75px" viewBox="0 0 75 75" version="1.1">
<g id="surface1">
<path style=" stroke:none;fill-rule:nonzero;fill:rgb(0%,0%,0%);fill-opacity:1;" d="M 44.898438 12.929688 C 44.953125 12.945312 45.046875 12.945312 45.105469 12.929688 C 45.15625 12.914062 45.109375 12.902344 45 12.902344 C 44.890625 12.902344 44.84375 12.914062 44.898438 12.929688 Z M 44.898438 12.929688 "/>
<path style=" stroke:none;fill-rule:nonzero;fill:rgb(0%,0%,0%);fill-opacity:1;" d="M 44.53125 13.019531 C 44.53125 13.046875 44.640625 13.070312 44.78125 13.078125 L 45.03125 13.085938 L 44.8125 13.109375 C 44.695312 13.117188 44.542969 13.101562 44.476562 13.066406 C 44.382812 13.019531 44.304688 13.039062 44.078125 13.15625 C 43.726562 13.34375 43.445312 13.554688 43.625 13.5 C 43.734375 13.46875 43.734375 13.46875 43.628906 13.535156 C 43.539062 13.59375 43.476562 13.585938 43.277344 13.488281 C 42.921875 13.3125 42.476562 13.171875 42.382812 13.207031 C 42.335938 13.226562 42.289062 13.207031 42.269531 13.160156 C 42.25 13.109375 42.15625 13.089844 41.96875 13.113281 C 41.824219 13.125 41.71875 13.113281 41.734375 13.089844 C 41.753906 13.0625 41.625 13.039062 41.453125 13.039062 C 41.273438 13.039062 41.171875 13.054688 41.210938 13.085938 C 41.25 13.113281 41.210938 13.117188 41.117188 13.101562 C 41.003906 13.070312 40.828125 13.117188 40.53125 13.25 C 40.019531 13.46875 39.703125 13.722656 39.695312 13.898438 C 39.695312 13.960938 39.65625 14.03125 39.609375 14.046875 C 39.53125 14.070312 39.53125 14.0625 39.609375 14.007812 C 39.65625 13.980469 39.671875 13.929688 39.644531 13.90625 C 39.585938 13.84375 39.023438 14.46875 39.023438 14.589844 C 39.023438 14.625 39 14.648438 38.964844 14.648438 C 38.9375 14.648438 38.894531 14.710938 38.871094 14.796875 C 38.851562 14.875 38.804688 14.941406 38.773438 14.941406 C 38.730469 14.941406 38.730469 14.964844 38.777344 15.011719 C 38.871094 15.105469 38.867188 15.242188 38.75 15.382812 L 38.660156 15.5 L 38.6875 15.382812 C 38.703125 15.316406 38.734375 15.210938 38.765625 15.148438 C 38.804688 15.046875 38.796875 15.039062 38.726562 15.101562 C 38.671875 15.140625 38.59375 15.28125 38.554688 15.410156 C 38.515625 15.539062 38.453125 15.644531 38.421875 15.644531 C 38.390625 15.644531 38.378906 15.714844 38.402344 15.804688 C 38.421875 15.898438 38.421875 15.929688 38.402344 15.890625 C 38.382812 15.855469 38.34375 15.835938 38.3125 15.855469 C 38.28125 15.875 38.285156 15.921875 38.328125 15.972656 C 38.378906 16.039062 38.375 16.09375 38.296875 16.25 L 38.195312 16.4375 L 38.234375 16.257812 C 38.265625 16.089844 38.265625 16.085938 38.179688 16.210938 C 38.125 16.28125 38.101562 16.375 38.121094 16.421875 C 38.140625 16.46875 38.117188 16.546875 38.074219 16.59375 C 37.921875 16.757812 37.863281 16.914062 37.882812 17.15625 C 37.886719 17.289062 37.867188 17.40625 37.84375 17.40625 C 37.816406 17.414062 37.757812 17.421875 37.722656 17.425781 C 37.679688 17.425781 37.617188 17.519531 37.582031 17.625 C 37.554688 17.730469 37.507812 17.796875 37.484375 17.777344 C 37.460938 17.753906 37.441406 17.828125 37.441406 17.941406 C 37.441406 18.070312 37.398438 18.179688 37.34375 18.226562 C 37.25 18.304688 37.242188 18.296875 37.320312 18.203125 C 37.367188 18.152344 37.390625 18.085938 37.371094 18.078125 C 37.34375 18.046875 37.183594 18.34375 37.125 18.53125 C 37.109375 18.59375 37.066406 18.625 37.039062 18.601562 C 37.007812 18.585938 36.96875 18.621094 36.945312 18.6875 C 36.925781 18.742188 36.859375 18.835938 36.796875 18.898438 C 36.734375 18.953125 36.679688 19.054688 36.679688 19.117188 C 36.679688 19.1875 36.648438 19.21875 36.601562 19.203125 C 36.550781 19.183594 36.527344 19.21875 36.539062 19.328125 C 36.546875 19.414062 36.53125 19.4375 36.523438 19.375 C 36.5 19.296875 36.480469 19.28125 36.410156 19.34375 C 36.304688 19.429688 36.304688 19.484375 36.421875 19.59375 C 36.46875 19.648438 36.480469 19.6875 36.445312 19.6875 C 36.410156 19.6875 36.367188 19.648438 36.351562 19.601562 C 36.328125 19.554688 36.289062 19.511719 36.257812 19.511719 C 36.222656 19.511719 36.210938 19.554688 36.226562 19.59375 C 36.25 19.652344 36.234375 19.671875 36.175781 19.648438 C 36.125 19.628906 36.09375 19.65625 36.09375 19.742188 C 36.09375 19.8125 36.0625 19.851562 36.023438 19.835938 C 35.941406 19.804688 35.425781 20.445312 35.476562 20.5 C 35.5 20.519531 35.53125 20.5 35.554688 20.46875 C 35.578125 20.429688 35.59375 20.539062 35.601562 20.703125 C 35.609375 20.871094 35.59375 20.945312 35.585938 20.871094 C 35.566406 20.800781 35.53125 20.742188 35.5 20.742188 C 35.472656 20.742188 35.449219 20.695312 35.449219 20.636719 C 35.445312 20.5625 35.425781 20.570312 35.359375 20.683594 C 35.308594 20.777344 35.28125 20.992188 35.28125 21.296875 C 35.28125 21.640625 35.296875 21.734375 35.335938 21.648438 C 35.378906 21.570312 35.382812 21.632812 35.367188 21.882812 C 35.355469 22.09375 35.359375 22.1875 35.390625 22.117188 C 35.425781 22.023438 35.445312 22.019531 35.46875 22.089844 C 35.542969 22.304688 35.566406 22.5 35.515625 22.5 C 35.484375 22.5 35.445312 22.441406 35.429688 22.367188 C 35.421875 22.296875 35.402344 22.359375 35.398438 22.511719 C 35.390625 22.722656 35.414062 22.804688 35.496094 22.84375 C 35.578125 22.886719 35.589844 22.957031 35.570312 23.1875 L 35.542969 23.46875 L 35.5 23.261719 C 35.476562 23.144531 35.472656 23.242188 35.492188 23.496094 C 35.507812 23.8125 35.5 23.914062 35.453125 23.847656 C 35.421875 23.800781 35.390625 23.789062 35.390625 23.824219 C 35.390625 23.859375 35.429688 23.921875 35.476562 23.964844 C 35.523438 24.007812 35.566406 24.078125 35.566406 24.125 C 35.566406 24.1875 35.53125 24.171875 35.453125 24.078125 L 35.351562 23.941406 L 35.308594 24.070312 C 35.285156 24.148438 35.164062 24.296875 35.046875 24.421875 C 34.921875 24.539062 34.804688 24.6875 34.78125 24.742188 C 34.765625 24.808594 34.695312 24.867188 34.628906 24.882812 C 34.539062 24.90625 34.515625 24.949219 34.539062 25.023438 C 34.5625 25.089844 34.554688 25.136719 34.511719 25.136719 C 34.476562 25.136719 34.464844 25.109375 34.484375 25.078125 C 34.554688 24.96875 34.417969 25.019531 34.3125 25.148438 C 34.25 25.21875 34.195312 25.371094 34.1875 25.484375 C 34.171875 25.773438 34.171875 25.78125 34.089844 25.78125 C 34.039062 25.78125 34.039062 25.765625 34.089844 25.710938 C 34.171875 25.628906 34.183594 25.488281 34.109375 25.488281 C 34.0625 25.488281 33.96875 25.675781 33.953125 25.792969 C 33.953125 25.816406 33.921875 25.867188 33.882812 25.90625 C 33.84375 25.945312 33.808594 26.046875 33.808594 26.121094 C 33.808594 26.195312 33.785156 26.242188 33.761719 26.226562 C 33.734375 26.210938 33.71875 26.28125 33.738281 26.382812 C 33.75 26.519531 33.742188 26.546875 33.703125 26.492188 C 33.644531 26.40625 33.574219 26.660156 33.492188 27.21875 L 33.457031 27.453125 L 33.546875 27.175781 C 33.59375 27.023438 33.664062 26.882812 33.691406 26.867188 C 33.773438 26.820312 33.765625 26.847656 33.640625 27.234375 C 33.492188 27.679688 33.410156 29.296875 33.546875 29.0625 C 33.621094 28.929688 33.625 28.945312 33.597656 29.296875 C 33.574219 29.640625 33.578125 29.664062 33.65625 29.5625 C 33.738281 29.449219 33.742188 29.460938 33.691406 29.648438 C 33.621094 29.898438 33.621094 29.898438 33.695312 29.847656 C 33.742188 29.820312 33.757812 29.847656 33.734375 29.945312 C 33.714844 30.03125 33.734375 30.132812 33.785156 30.199219 C 33.832031 30.265625 33.867188 30.382812 33.875 30.460938 C 33.875 30.546875 33.890625 30.578125 33.90625 30.539062 C 33.945312 30.445312 34.042969 30.503906 34.042969 30.621094 C 34.042969 30.667969 34.019531 30.691406 33.984375 30.671875 C 33.949219 30.65625 33.945312 30.679688 33.960938 30.734375 C 33.992188 30.808594 34.015625 30.808594 34.101562 30.703125 C 34.203125 30.59375 34.203125 30.59375 34.183594 30.832031 C 34.171875 31.046875 34.1875 31.09375 34.429688 31.324219 C 34.710938 31.601562 34.910156 31.664062 35.367188 31.628906 C 35.6875 31.601562 36.132812 31.476562 36.269531 31.382812 C 36.453125 31.253906 36.632812 31.164062 36.59375 31.226562 C 36.574219 31.257812 36.574219 31.289062 36.59375 31.289062 C 36.648438 31.289062 36.878906 31.160156 36.960938 31.070312 C 37 31.03125 37.070312 30.996094 37.109375 30.996094 C 37.148438 30.996094 37.140625 31.023438 37.089844 31.0625 C 37.019531 31.109375 37.03125 31.113281 37.148438 31.089844 C 37.230469 31.070312 37.324219 31.054688 37.351562 31.046875 C 37.390625 31.046875 37.359375 31.023438 37.296875 30.996094 C 37.210938 30.960938 37.257812 30.949219 37.46875 30.945312 C 37.632812 30.945312 37.859375 30.914062 37.96875 30.878906 C 38.28125 30.789062 38.617188 30.808594 39.046875 30.9375 C 39.28125 31.015625 39.484375 31.042969 39.585938 31.019531 C 39.714844 30.984375 39.738281 30.996094 39.710938 31.070312 C 39.6875 31.140625 39.742188 31.183594 39.945312 31.253906 C 40.09375 31.304688 40.289062 31.347656 40.382812 31.347656 C 40.46875 31.347656 40.546875 31.375 40.546875 31.414062 C 40.546875 31.453125 40.605469 31.464844 40.6875 31.441406 C 40.769531 31.421875 40.851562 31.4375 40.867188 31.46875 C 40.890625 31.507812 40.984375 31.515625 41.09375 31.492188 C 41.238281 31.464844 41.261719 31.46875 41.191406 31.523438 C 41.125 31.570312 41.234375 31.582031 41.625 31.570312 C 41.964844 31.558594 42.15625 31.53125 42.171875 31.484375 C 42.1875 31.441406 42.226562 31.421875 42.273438 31.441406 C 42.316406 31.460938 42.398438 31.414062 42.453125 31.335938 C 42.523438 31.242188 42.5625 31.226562 42.578125 31.277344 C 42.625 31.398438 42.929688 30.820312 43.019531 30.4375 C 43.195312 29.683594 43.203125 29.390625 43.042969 28.769531 C 42.890625 28.15625 42.808594 27.976562 42.695312 28.046875 C 42.664062 28.070312 42.648438 28.046875 42.671875 27.992188 C 42.691406 27.929688 42.6875 27.890625 42.65625 27.890625 C 42.625 27.890625 42.585938 27.832031 42.5625 27.757812 C 42.5 27.539062 42.171875 27.125 42.09375 27.152344 C 42.054688 27.171875 42.03125 27.152344 42.039062 27.109375 C 42.054688 27.070312 41.988281 26.945312 41.890625 26.835938 C 41.777344 26.703125 41.726562 26.671875 41.75 26.75 C 41.777344 26.835938 41.773438 26.847656 41.730469 26.78125 C 41.695312 26.734375 41.683594 26.664062 41.703125 26.617188 C 41.71875 26.578125 41.707031 26.542969 41.671875 26.542969 C 41.570312 26.542969 41.414062 26.0625 41.414062 25.75 C 41.414062 25.371094 41.59375 24.96875 41.960938 24.546875 C 42.117188 24.363281 42.246094 24.1875 42.246094 24.15625 C 42.246094 24.128906 42.296875 24.046875 42.363281 23.984375 C 42.421875 23.914062 42.492188 23.78125 42.515625 23.6875 L 42.550781 23.523438 L 42.429688 23.703125 C 42.363281 23.796875 42.304688 23.847656 42.304688 23.820312 C 42.304688 23.78125 42.273438 23.800781 42.246094 23.847656 C 42.199219 23.917969 42.1875 23.914062 42.1875 23.804688 C 42.1875 23.660156 42.28125 23.578125 42.320312 23.683594 C 42.335938 23.730469 42.382812 23.6875 42.421875 23.59375 C 42.46875 23.507812 42.53125 23.445312 42.570312 23.460938 C 42.644531 23.484375 42.808594 22.910156 42.851562 22.46875 C 42.867188 22.34375 42.859375 22.296875 42.851562 22.367188 C 42.789062 22.664062 42.742188 22.464844 42.742188 21.925781 C 42.738281 21.617188 42.71875 21.269531 42.695312 21.15625 C 42.671875 21.046875 42.671875 20.976562 42.695312 21 C 42.71875 21.023438 42.765625 21.269531 42.808594 21.550781 C 42.851562 21.867188 42.878906 21.972656 42.882812 21.828125 C 42.898438 21.386719 42.644531 20.078125 42.386719 19.226562 C 42.304688 18.945312 42.269531 18.882812 42.234375 18.96875 C 42.199219 19.039062 42.195312 19 42.210938 18.867188 C 42.234375 18.6875 42.21875 18.65625 42.109375 18.65625 C 42.039062 18.65625 41.964844 18.6875 41.941406 18.714844 C 41.917969 18.75 41.894531 18.71875 41.894531 18.648438 C 41.894531 18.578125 41.921875 18.503906 41.953125 18.484375 C 41.988281 18.46875 42.011719 18.480469 42.011719 18.507812 C 42.011719 18.546875 42.054688 18.574219 42.101562 18.574219 C 42.203125 18.574219 42.203125 18.574219 42.105469 18.335938 C 41.976562 18.023438 41.9375 17.5625 42.011719 17.285156 C 42.082031 17.015625 42.4375 16.625 42.671875 16.546875 C 42.796875 16.507812 42.796875 16.507812 42.6875 16.453125 C 42.597656 16.417969 42.617188 16.414062 42.757812 16.429688 C 42.859375 16.445312 42.960938 16.4375 42.976562 16.398438 C 43 16.371094 43.046875 16.347656 43.085938 16.351562 C 43.125 16.359375 43.21875 16.347656 43.300781 16.328125 C 43.382812 16.304688 43.699219 16.265625 44.003906 16.234375 C 44.308594 16.207031 44.617188 16.164062 44.695312 16.140625 C 44.773438 16.117188 44.824219 16.125 44.824219 16.160156 C 44.824219 16.195312 44.777344 16.234375 44.726562 16.253906 C 44.664062 16.273438 44.707031 16.277344 44.804688 16.265625 C 44.914062 16.257812 44.988281 16.257812 44.96875 16.277344 C 44.921875 16.324219 45.105469 16.464844 45.1875 16.445312 C 45.226562 16.4375 45.246094 16.4375 45.21875 16.445312 C 45.195312 16.464844 45.226562 16.554688 45.296875 16.648438 C 45.367188 16.75 45.4375 16.976562 45.476562 17.238281 C 45.503906 17.472656 45.539062 17.753906 45.550781 17.851562 C 45.574219 18.039062 45.691406 18.4375 45.75 18.539062 C 45.765625 18.570312 45.804688 18.546875 45.832031 18.480469 C 45.867188 18.40625 45.875 18.429688 45.851562 18.5625 C 45.832031 18.679688 45.84375 18.742188 45.878906 18.71875 C 45.90625 18.703125 45.921875 18.71875 45.902344 18.765625 C 45.84375 18.925781 46.726562 20.039062 46.792969 19.886719 C 46.8125 19.851562 46.886719 19.835938 46.960938 19.851562 C 47.140625 19.882812 47.320312 20.070312 47.234375 20.125 C 47.195312 20.144531 47.167969 20.125 47.167969 20.078125 C 47.167969 20.03125 47.109375 19.980469 47.039062 19.957031 C 46.851562 19.910156 46.816406 19.914062 46.816406 19.980469 C 46.816406 20.007812 46.84375 20.039062 46.882812 20.039062 C 46.914062 20.039062 47.03125 20.109375 47.144531 20.191406 C 47.257812 20.28125 47.34375 20.328125 47.34375 20.296875 C 47.34375 20.273438 47.402344 20.304688 47.476562 20.367188 C 47.683594 20.546875 48.078125 20.703125 48.226562 20.65625 C 48.339844 20.625 48.351562 20.632812 48.28125 20.679688 C 48.210938 20.730469 48.222656 20.742188 48.351562 20.742188 C 48.546875 20.742188 48.664062 20.90625 48.71875 21.25 C 48.742188 21.390625 48.78125 21.515625 48.808594 21.53125 C 48.832031 21.546875 48.84375 21.921875 48.835938 22.367188 C 48.820312 23.164062 48.714844 23.824219 48.539062 24.25 C 48.492188 24.359375 48.476562 24.515625 48.492188 24.601562 C 48.515625 24.71875 48.507812 24.738281 48.460938 24.667969 C 48.410156 24.597656 48.398438 24.601562 48.398438 24.710938 C 48.398438 24.78125 48.367188 24.855469 48.339844 24.875 C 48.304688 24.898438 48.203125 25.0625 48.117188 25.242188 C 48.023438 25.421875 47.871094 25.71875 47.765625 25.882812 C 47.585938 26.1875 47.585938 26.191406 47.710938 26.195312 C 47.8125 26.203125 47.800781 26.214844 47.664062 26.242188 C 47.566406 26.261719 47.460938 26.335938 47.421875 26.425781 C 47.378906 26.507812 47.34375 26.546875 47.34375 26.519531 C 47.34375 26.492188 47.289062 26.539062 47.21875 26.625 C 47.101562 26.773438 47.101562 26.789062 47.191406 26.921875 C 47.25 27.011719 47.261719 27.070312 47.21875 27.070312 C 47.1875 27.070312 47.144531 27.015625 47.125 26.953125 C 47.109375 26.890625 47.085938 26.835938 47.070312 26.835938 C 47.027344 26.835938 46.820312 27.09375 46.816406 27.140625 C 46.816406 27.164062 46.769531 27.242188 46.71875 27.296875 C 46.414062 27.65625 46.273438 28.5625 46.441406 29.121094 C 46.5 29.308594 46.5625 29.453125 46.59375 29.4375 C 46.617188 29.421875 46.640625 29.46875 46.640625 29.542969 C 46.640625 29.617188 46.695312 29.71875 46.757812 29.765625 C 46.820312 29.8125 46.875 29.875 46.875 29.90625 C 46.875 29.9375 46.828125 29.917969 46.769531 29.867188 C 46.710938 29.804688 46.648438 29.765625 46.625 29.765625 C 46.585938 29.765625 45.90625 30.851562 45.5625 31.464844 C 45.304688 31.921875 44.390625 33.75 44.164062 34.273438 C 43.195312 36.460938 42.339844 39.085938 41.773438 41.632812 L 41.570312 42.507812 L 41.53125 42.1875 C 41.472656 41.664062 41.476562 39.242188 41.542969 38.351562 C 41.695312 36.3125 42.128906 33.457031 42.515625 31.910156 C 42.5625 31.722656 42.59375 31.558594 42.578125 31.546875 C 42.570312 31.535156 42.460938 31.675781 42.34375 31.859375 C 42.039062 32.351562 41.601562 32.820312 41.0625 33.222656 C 40.421875 33.703125 39.976562 33.921875 38.9375 34.242188 C 37.773438 34.605469 37.488281 34.71875 37.019531 34.960938 C 36.5625 35.203125 36.125 35.585938 36.171875 35.703125 C 36.1875 35.75 36.296875 36.257812 36.414062 36.832031 C 36.53125 37.414062 36.667969 38.039062 36.71875 38.234375 C 36.765625 38.425781 36.84375 38.765625 36.882812 38.992188 C 36.925781 39.21875 37.089844 40.023438 37.253906 40.78125 C 37.554688 42.15625 38.375 45.972656 38.5 46.582031 C 38.539062 46.757812 38.59375 47.007812 38.636719 47.140625 L 38.703125 47.375 L 43.617188 47.390625 C 48.429688 47.402344 48.53125 47.40625 48.691406 47.519531 C 49.023438 47.753906 49.042969 48.328125 48.734375 48.546875 C 48.621094 48.621094 49.015625 48.632812 52.4375 48.632812 L 56.261719 48.632812 L 56.484375 48.410156 C 56.683594 48.210938 56.710938 48.148438 56.75 47.78125 C 56.828125 47.027344 56.730469 42.925781 56.578125 40.78125 C 56.335938 37.492188 56.320312 37.335938 55.980469 35.601562 C 55.488281 33.125 54.84375 32.039062 53.660156 31.722656 C 53.1875 31.601562 52.5625 31.625 51.476562 31.816406 C 50.929688 31.910156 50.320312 31.992188 50.125 31.992188 C 49.207031 31.984375 48.292969 31.558594 47.566406 30.773438 C 47.28125 30.460938 47.195312 30.265625 47.390625 30.335938 C 47.445312 30.351562 47.519531 30.390625 47.546875 30.414062 C 47.585938 30.4375 47.664062 30.460938 47.726562 30.46875 C 47.789062 30.46875 47.953125 30.480469 48.09375 30.492188 C 48.226562 30.5 48.339844 30.484375 48.339844 30.46875 C 48.339844 30.445312 48.421875 30.410156 48.515625 30.386719 C 48.617188 30.367188 48.855469 30.242188 49.0625 30.105469 C 49.257812 29.964844 49.671875 29.734375 49.96875 29.59375 C 50.414062 29.382812 50.523438 29.355469 50.59375 29.414062 C 50.648438 29.453125 50.707031 29.472656 50.726562 29.449219 C 50.75 29.425781 50.734375 29.382812 50.6875 29.359375 C 50.640625 29.332031 50.710938 29.3125 50.859375 29.3125 C 51.015625 29.3125 51.078125 29.332031 51.023438 29.359375 C 50.984375 29.390625 50.960938 29.414062 50.976562 29.414062 C 50.992188 29.421875 51.101562 29.429688 51.210938 29.445312 C 51.320312 29.460938 51.65625 29.507812 51.945312 29.554688 C 52.234375 29.59375 52.492188 29.613281 52.523438 29.585938 C 52.554688 29.5625 52.703125 29.554688 52.867188 29.570312 C 53.101562 29.601562 53.167969 29.589844 53.214844 29.515625 C 53.242188 29.453125 53.320312 29.414062 53.378906 29.414062 C 53.515625 29.414062 53.566406 29.335938 53.519531 29.214844 C 53.492188 29.140625 53.460938 29.132812 53.402344 29.1875 C 53.359375 29.21875 53.289062 29.238281 53.25 29.21875 C 53.203125 29.195312 53.210938 29.1875 53.273438 29.1875 C 53.328125 29.179688 53.414062 29.121094 53.472656 29.046875 C 53.53125 28.96875 53.554688 28.957031 53.539062 29.015625 C 53.519531 29.070312 53.539062 29.125 53.589844 29.144531 C 53.648438 29.167969 53.671875 29.125 53.679688 28.984375 C 53.683594 28.882812 53.695312 28.84375 53.710938 28.90625 C 53.757812 29.078125 53.847656 28.953125 53.8125 28.75 C 53.789062 28.609375 53.796875 28.585938 53.84375 28.652344 C 53.890625 28.71875 53.90625 28.722656 53.90625 28.664062 C 53.90625 28.625 53.921875 28.601562 53.953125 28.609375 C 53.976562 28.628906 54 28.515625 54 28.371094 C 54.011719 28.015625 54.125 27.714844 54.199219 27.832031 C 54.242188 27.898438 54.257812 27.835938 54.257812 27.640625 C 54.257812 27.484375 54.234375 27.363281 54.210938 27.363281 C 54.15625 27.363281 54.175781 26.824219 54.242188 26.40625 C 54.257812 26.285156 54.242188 26.109375 54.199219 26.007812 C 54.152344 25.898438 54.148438 25.816406 54.175781 25.792969 C 54.203125 25.769531 54.21875 25.65625 54.195312 25.546875 L 54.15625 25.34375 L 54.148438 25.558594 C 54.132812 25.867188 54.035156 25.839844 54.039062 25.53125 C 54.046875 25.394531 54.03125 25.1875 54.007812 25.078125 C 53.96875 24.914062 53.976562 24.902344 54.015625 25 C 54.105469 25.203125 54.140625 25.164062 54.078125 24.949219 C 54.046875 24.84375 54.023438 24.75 54.023438 24.738281 C 54.023438 24.726562 54 24.734375 53.976562 24.75 C 53.945312 24.765625 53.929688 24.667969 53.929688 24.53125 C 53.9375 24.363281 53.914062 24.292969 53.859375 24.304688 C 53.8125 24.3125 53.789062 24.265625 53.796875 24.1875 C 53.820312 23.945312 53.789062 23.84375 53.726562 23.882812 C 53.679688 23.90625 53.671875 23.875 53.703125 23.789062 C 53.734375 23.679688 53.726562 23.660156 53.640625 23.695312 C 53.5625 23.726562 53.546875 23.707031 53.570312 23.601562 C 53.613281 23.445312 53.515625 23.296875 53.351562 23.273438 C 53.285156 23.261719 53.210938 23.226562 53.179688 23.203125 C 53.148438 23.171875 53.191406 23.167969 53.265625 23.1875 C 53.382812 23.214844 53.398438 23.203125 53.332031 23.140625 C 53.289062 23.09375 53.238281 23.054688 53.214844 23.054688 C 53.125 23.050781 52.910156 22.90625 52.910156 22.84375 C 52.910156 22.8125 52.953125 22.828125 53.003906 22.875 C 53.050781 22.929688 53.121094 22.96875 53.164062 22.96875 C 53.195312 22.96875 53.109375 22.882812 52.960938 22.78125 C 52.820312 22.675781 52.671875 22.558594 52.628906 22.515625 C 52.507812 22.398438 52.46875 22.429688 52.578125 22.546875 C 52.632812 22.605469 52.65625 22.675781 52.632812 22.695312 C 52.5625 22.765625 52.507812 22.734375 52.535156 22.648438 C 52.558594 22.601562 52.53125 22.546875 52.476562 22.523438 C 52.421875 22.507812 52.394531 22.464844 52.414062 22.441406 C 52.441406 22.394531 52.066406 22.03125 51.976562 22.03125 C 51.949219 22.03125 51.90625 21.96875 51.890625 21.882812 C 51.867188 21.804688 51.832031 21.738281 51.804688 21.738281 C 51.773438 21.738281 51.734375 21.65625 51.710938 21.5625 C 51.6875 21.460938 51.644531 21.398438 51.617188 21.421875 C 51.585938 21.4375 51.5625 21.367188 51.5625 21.273438 C 51.5625 21.171875 51.53125 21.09375 51.492188 21.09375 C 51.4375 21.09375 51.414062 21 51.429688 20.789062 L 51.433594 20.476562 L 51.390625 20.742188 C 51.367188 20.917969 51.351562 20.710938 51.339844 20.140625 C 51.339844 19.664062 51.316406 19.25 51.296875 19.21875 C 51.28125 19.1875 51.265625 18.972656 51.265625 18.738281 C 51.257812 18.328125 51.257812 18.316406 51.179688 18.484375 L 51.101562 18.664062 L 51.132812 18.5 C 51.152344 18.410156 51.171875 18.304688 51.171875 18.265625 C 51.179688 18.148438 51.023438 17.695312 50.96875 17.695312 C 50.941406 17.695312 50.9375 17.648438 50.960938 17.589844 C 50.988281 17.507812 50.976562 17.5 50.917969 17.5625 C 50.851562 17.617188 50.824219 17.601562 50.757812 17.476562 C 50.679688 17.3125 50.710938 17.203125 50.800781 17.34375 C 50.875 17.46875 50.871094 17.359375 50.796875 17.214844 C 50.742188 17.117188 50.71875 17.109375 50.671875 17.171875 C 50.625 17.238281 50.625 17.234375 50.648438 17.148438 C 50.671875 17.085938 50.632812 16.96875 50.554688 16.863281 C 50.4375 16.695312 50.425781 16.6875 50.378906 16.792969 C 50.34375 16.867188 50.335938 16.859375 50.359375 16.734375 C 50.390625 16.605469 50.378906 16.578125 50.308594 16.601562 C 50.261719 16.617188 50.210938 16.59375 50.191406 16.546875 C 50.140625 16.40625 50.148438 16.367188 50.214844 16.464844 C 50.242188 16.511719 50.273438 16.523438 50.273438 16.488281 C 50.273438 16.453125 50.238281 16.390625 50.191406 16.351562 C 50.125 16.300781 50.101562 16.300781 50.078125 16.359375 C 50.054688 16.417969 50.03125 16.417969 49.980469 16.347656 C 49.929688 16.28125 49.90625 16.277344 49.882812 16.328125 C 49.867188 16.371094 49.828125 16.40625 49.792969 16.40625 C 49.757812 16.40625 49.765625 16.371094 49.804688 16.320312 C 49.84375 16.265625 49.914062 16.234375 49.960938 16.253906 C 50.070312 16.296875 50.0625 16.203125 49.953125 16.113281 C 49.882812 16.054688 49.84375 16.054688 49.773438 16.113281 C 49.703125 16.171875 49.6875 16.171875 49.6875 16.089844 C 49.6875 16.039062 49.71875 15.996094 49.75 15.996094 C 49.84375 15.996094 49.703125 15.832031 49.445312 15.648438 C 49.335938 15.570312 49.230469 15.46875 49.21875 15.4375 C 49.171875 15.316406 48.574219 14.945312 48.476562 14.976562 C 48.390625 15 48.386719 14.992188 48.445312 14.953125 C 48.507812 14.914062 48.492188 14.871094 48.367188 14.777344 C 48.28125 14.707031 48.15625 14.636719 48.085938 14.613281 C 48.015625 14.589844 47.921875 14.53125 47.882812 14.476562 C 47.820312 14.402344 47.8125 14.402344 47.84375 14.472656 C 47.867188 14.519531 47.828125 14.507812 47.773438 14.445312 C 47.566406 14.214844 47.203125 14.023438 47.007812 14.039062 C 46.90625 14.046875 46.828125 14.027344 46.84375 14.003906 C 46.863281 13.980469 46.929688 13.96875 46.992188 13.984375 C 47.191406 14.039062 47.121094 13.957031 46.863281 13.820312 C 46.722656 13.75 46.5625 13.65625 46.511719 13.605469 C 46.453125 13.558594 46.40625 13.535156 46.40625 13.558594 C 46.40625 13.582031 46.351562 13.546875 46.289062 13.488281 C 46.226562 13.429688 46.09375 13.34375 46.007812 13.300781 C 45.921875 13.253906 45.796875 13.171875 45.734375 13.117188 C 45.644531 13.042969 45.476562 13.015625 45.070312 12.996094 C 44.777344 12.992188 44.53125 12.996094 44.53125 13.019531 Z M 45.453125 13.101562 C 45.433594 13.117188 45.382812 13.125 45.339844 13.109375 C 45.292969 13.089844 45.3125 13.070312 45.375 13.070312 C 45.4375 13.066406 45.476562 13.085938 45.453125 13.101562 Z M 40.765625 13.335938 C 40.746094 13.351562 40.695312 13.359375 40.652344 13.34375 C 40.605469 13.324219 40.625 13.304688 40.6875 13.304688 C 40.75 13.300781 40.789062 13.320312 40.765625 13.335938 Z M 42.570312 13.359375 C 42.585938 13.390625 42.5625 13.417969 42.515625 13.417969 C 42.460938 13.417969 42.421875 13.390625 42.421875 13.359375 C 42.421875 13.324219 42.445312 13.300781 42.476562 13.300781 C 42.507812 13.300781 42.550781 13.324219 42.570312 13.359375 Z M 44.046875 13.476562 C 44.0625 13.535156 44.054688 13.539062 44.023438 13.5 C 44 13.464844 43.933594 13.417969 43.886719 13.398438 C 43.820312 13.371094 43.835938 13.367188 43.910156 13.375 C 43.976562 13.382812 44.03125 13.429688 44.046875 13.476562 Z M 42.949219 13.476562 C 42.949219 13.507812 42.90625 13.535156 42.855469 13.535156 C 42.808594 13.535156 42.785156 13.507812 42.804688 13.476562 C 42.820312 13.441406 42.859375 13.417969 42.898438 13.417969 C 42.925781 13.417969 42.949219 13.441406 42.949219 13.476562 Z M 45.585938 13.535156 C 45.585938 13.5625 45.5625 13.59375 45.527344 13.59375 C 45.5 13.59375 45.46875 13.5625 45.46875 13.535156 C 45.46875 13.5 45.5 13.476562 45.527344 13.476562 C 45.5625 13.476562 45.585938 13.5 45.585938 13.535156 Z M 46.640625 13.886719 C 46.640625 13.914062 46.617188 13.945312 46.585938 13.945312 C 46.554688 13.945312 46.511719 13.914062 46.492188 13.886719 C 46.476562 13.851562 46.5 13.828125 46.546875 13.828125 C 46.601562 13.828125 46.640625 13.851562 46.640625 13.886719 Z M 47.578125 14.382812 C 47.617188 14.429688 47.625 14.472656 47.589844 14.472656 C 47.5625 14.472656 47.5 14.429688 47.460938 14.382812 C 47.421875 14.335938 47.414062 14.296875 47.449219 14.296875 C 47.476562 14.296875 47.539062 14.335938 47.578125 14.382812 Z M 39.289062 14.539062 C 39.265625 14.566406 39.28125 14.589844 39.3125 14.589844 C 39.34375 14.589844 39.375 14.636719 39.375 14.6875 C 39.367188 14.777344 39.351562 14.773438 39.257812 14.65625 C 39.148438 14.523438 39.152344 14.378906 39.265625 14.449219 C 39.292969 14.46875 39.304688 14.507812 39.289062 14.539062 Z M 38.992188 14.859375 C 38.882812 14.976562 38.851562 14.992188 38.882812 14.90625 C 38.929688 14.800781 39.09375 14.640625 39.128906 14.679688 C 39.140625 14.683594 39.078125 14.765625 38.992188 14.859375 Z M 48.164062 14.800781 C 48.164062 14.8125 48.125 14.824219 48.078125 14.824219 C 48.03125 14.824219 47.988281 14.800781 47.988281 14.765625 C 47.988281 14.734375 48.03125 14.726562 48.078125 14.742188 C 48.125 14.765625 48.164062 14.789062 48.164062 14.800781 Z M 47.851562 14.894531 C 47.835938 14.941406 47.820312 14.921875 47.820312 14.859375 C 47.8125 14.796875 47.828125 14.757812 47.847656 14.78125 C 47.867188 14.800781 47.871094 14.851562 47.851562 14.894531 Z M 48.304688 14.941406 C 48.269531 14.976562 48.246094 14.953125 48.242188 14.871094 C 48.226562 14.777344 48.246094 14.765625 48.296875 14.820312 C 48.339844 14.859375 48.34375 14.898438 48.304688 14.941406 Z M 39.375 14.882812 C 39.375 14.914062 39.363281 14.941406 39.351562 14.941406 C 39.335938 14.941406 39.304688 14.914062 39.289062 14.882812 C 39.269531 14.847656 39.28125 14.824219 39.3125 14.824219 C 39.34375 14.824219 39.375 14.847656 39.375 14.882812 Z M 48.925781 15.292969 C 48.925781 15.320312 48.882812 15.351562 48.832031 15.351562 C 48.785156 15.351562 48.761719 15.320312 48.78125 15.292969 C 48.796875 15.257812 48.835938 15.234375 48.875 15.234375 C 48.902344 15.234375 48.925781 15.257812 48.925781 15.292969 Z M 49.511719 15.84375 C 49.640625 16 49.484375 15.945312 49.328125 15.785156 C 49.207031 15.644531 49.203125 15.632812 49.3125 15.691406 C 49.375 15.726562 49.464844 15.796875 49.511719 15.84375 Z M 44.0625 16.054688 C 44.0625 16.085938 44.023438 16.09375 43.976562 16.078125 C 43.929688 16.054688 43.886719 16.03125 43.886719 16.019531 C 43.886719 16.007812 43.929688 15.996094 43.976562 15.996094 C 44.023438 15.996094 44.0625 16.019531 44.0625 16.054688 Z M 43.640625 16.1875 C 43.507812 16.21875 43.359375 16.21875 43.257812 16.1875 C 43.125 16.140625 43.164062 16.132812 43.476562 16.136719 C 43.828125 16.136719 43.839844 16.140625 43.640625 16.1875 Z M 42.46875 16.460938 C 42.53125 16.492188 42.503906 16.539062 42.367188 16.632812 C 42.234375 16.734375 42.199219 16.742188 42.222656 16.675781 C 42.242188 16.625 42.289062 16.582031 42.316406 16.582031 C 42.351562 16.582031 42.363281 16.539062 42.339844 16.492188 C 42.304688 16.394531 42.351562 16.382812 42.46875 16.460938 Z M 45.46875 16.460938 C 45.46875 16.492188 45.445312 16.535156 45.410156 16.554688 C 45.382812 16.570312 45.351562 16.546875 45.351562 16.5 C 45.351562 16.445312 45.382812 16.40625 45.410156 16.40625 C 45.445312 16.40625 45.46875 16.429688 45.46875 16.460938 Z M 38.4375 16.617188 C 38.4375 16.664062 38.40625 16.6875 38.378906 16.671875 C 38.34375 16.648438 38.332031 16.605469 38.351562 16.578125 C 38.402344 16.492188 38.4375 16.511719 38.4375 16.617188 Z M 50.195312 16.828125 C 50.179688 16.875 50.164062 16.859375 50.164062 16.792969 C 50.15625 16.726562 50.171875 16.695312 50.191406 16.71875 C 50.210938 16.734375 50.214844 16.789062 50.195312 16.828125 Z M 41.921875 17.148438 C 41.894531 17.238281 41.875 17.390625 41.882812 17.492188 C 41.890625 17.660156 41.890625 17.660156 41.835938 17.460938 C 41.804688 17.34375 41.804688 17.234375 41.84375 17.191406 C 41.871094 17.15625 41.875 17.109375 41.859375 17.09375 C 41.84375 17.074219 41.84375 17.027344 41.867188 16.992188 C 41.9375 16.882812 41.96875 16.980469 41.921875 17.148438 Z M 45.820312 17.402344 C 45.820312 17.429688 45.796875 17.460938 45.761719 17.460938 C 45.734375 17.460938 45.703125 17.429688 45.703125 17.402344 C 45.703125 17.367188 45.734375 17.34375 45.761719 17.34375 C 45.796875 17.34375 45.820312 17.367188 45.820312 17.402344 Z M 50.664062 17.648438 C 50.648438 17.6875 50.636719 17.660156 50.636719 17.578125 C 50.636719 17.496094 50.648438 17.46875 50.664062 17.5 C 50.679688 17.542969 50.679688 17.613281 50.664062 17.648438 Z M 37.945312 17.679688 C 37.886719 17.734375 37.835938 17.648438 37.886719 17.570312 C 37.921875 17.507812 37.933594 17.507812 37.957031 17.570312 C 37.96875 17.613281 37.960938 17.660156 37.945312 17.679688 Z M 41.757812 17.707031 C 41.742188 17.753906 41.726562 17.734375 41.726562 17.671875 C 41.71875 17.609375 41.734375 17.570312 41.753906 17.59375 C 41.773438 17.613281 41.777344 17.664062 41.757812 17.707031 Z M 41.953125 17.921875 C 41.953125 17.988281 41.929688 18.058594 41.894531 18.078125 C 41.859375 18.101562 41.835938 18.046875 41.835938 17.964844 C 41.835938 17.882812 41.867188 17.8125 41.894531 17.8125 C 41.929688 17.8125 41.953125 17.867188 41.953125 17.921875 Z M 45.703125 17.871094 C 45.703125 17.898438 45.691406 17.929688 45.679688 17.929688 C 45.664062 17.929688 45.632812 17.898438 45.617188 17.871094 C 45.597656 17.835938 45.609375 17.8125 45.640625 17.8125 C 45.671875 17.8125 45.703125 17.835938 45.703125 17.871094 Z M 41.851562 18.246094 C 41.871094 18.292969 41.851562 18.367188 41.820312 18.421875 C 41.757812 18.503906 41.75 18.492188 41.742188 18.339844 C 41.734375 18.15625 41.800781 18.105469 41.851562 18.246094 Z M 45.851562 18.273438 C 45.832031 18.3125 45.785156 18.339844 45.757812 18.339844 C 45.726562 18.339844 45.734375 18.304688 45.773438 18.257812 C 45.855469 18.164062 45.914062 18.179688 45.851562 18.273438 Z M 37.5 18.632812 C 37.5 18.664062 37.460938 18.691406 37.40625 18.691406 C 37.359375 18.691406 37.335938 18.664062 37.351562 18.632812 C 37.371094 18.597656 37.414062 18.574219 37.445312 18.574219 C 37.476562 18.574219 37.5 18.597656 37.5 18.632812 Z M 46.039062 18.878906 C 46.019531 18.925781 46 18.90625 46 18.84375 C 45.996094 18.78125 46.015625 18.742188 46.03125 18.765625 C 46.046875 18.785156 46.054688 18.835938 46.039062 18.878906 Z M 46.289062 18.773438 C 46.289062 18.789062 46.265625 18.820312 46.230469 18.835938 C 46.203125 18.855469 46.171875 18.84375 46.171875 18.8125 C 46.171875 18.78125 46.203125 18.75 46.230469 18.75 C 46.265625 18.75 46.289062 18.761719 46.289062 18.773438 Z M 36.878906 19.015625 C 36.828125 19.09375 36.765625 19.15625 36.757812 19.136719 C 36.71875 19.101562 36.875 18.867188 36.929688 18.867188 C 36.953125 18.867188 36.929688 18.929688 36.878906 19.015625 Z M 46.230469 19.042969 C 46.230469 19.070312 46.203125 19.101562 46.164062 19.101562 C 46.136719 19.101562 46.125 19.070312 46.140625 19.042969 C 46.160156 19.007812 46.1875 18.984375 46.207031 18.984375 C 46.21875 18.984375 46.230469 19.007812 46.230469 19.042969 Z M 42.28125 19.253906 C 42.257812 19.304688 42.226562 19.34375 42.21875 19.324219 C 42.199219 19.304688 42.199219 19.25 42.222656 19.195312 C 42.246094 19.140625 42.273438 19.109375 42.289062 19.125 C 42.304688 19.140625 42.304688 19.203125 42.28125 19.253906 Z M 46.40625 19.289062 C 46.40625 19.3125 46.371094 19.320312 46.324219 19.300781 C 46.277344 19.28125 46.253906 19.230469 46.273438 19.179688 C 46.300781 19.109375 46.3125 19.109375 46.351562 19.171875 C 46.382812 19.210938 46.40625 19.265625 46.40625 19.289062 Z M 51.25 20 C 51.242188 20.132812 51.234375 20.003906 51.234375 19.71875 C 51.234375 19.421875 51.242188 19.320312 51.25 19.46875 C 51.265625 19.625 51.265625 19.863281 51.25 20 Z M 42.226562 19.582031 C 42.210938 19.625 42.199219 19.59375 42.199219 19.511719 C 42.199219 19.429688 42.210938 19.398438 42.226562 19.4375 C 42.242188 19.476562 42.242188 19.546875 42.226562 19.582031 Z M 51.132812 19.699219 C 51.125 19.773438 51.109375 19.726562 51.109375 19.601562 C 51.105469 19.46875 51.117188 19.414062 51.132812 19.464844 C 51.148438 19.523438 51.148438 19.628906 51.132812 19.699219 Z M 42.460938 20.023438 C 42.445312 20.078125 42.433594 20.046875 42.433594 19.953125 C 42.433594 19.851562 42.445312 19.8125 42.460938 19.84375 C 42.476562 19.886719 42.476562 19.96875 42.460938 20.023438 Z M 51.132812 20.140625 C 51.117188 20.195312 51.105469 20.148438 51.105469 20.039062 C 51.105469 19.929688 51.117188 19.882812 51.132812 19.933594 C 51.148438 19.992188 51.148438 20.085938 51.132812 20.140625 Z M 36.054688 20.046875 C 36.078125 20.140625 36.070312 20.148438 36 20.09375 C 35.90625 20.015625 35.890625 19.921875 35.96875 19.921875 C 36 19.921875 36.035156 19.976562 36.054688 20.046875 Z M 51.195312 20.636719 C 51.175781 20.683594 51.15625 20.664062 51.15625 20.601562 C 51.152344 20.539062 51.171875 20.5 51.1875 20.523438 C 51.203125 20.542969 51.210938 20.59375 51.195312 20.636719 Z M 35.398438 21.015625 C 35.34375 21.109375 35.335938 21.105469 35.332031 20.96875 C 35.332031 20.890625 35.351562 20.800781 35.378906 20.777344 C 35.449219 20.707031 35.460938 20.90625 35.398438 21.015625 Z M 35.546875 21.164062 C 35.53125 21.210938 35.515625 21.195312 35.515625 21.128906 C 35.507812 21.0625 35.523438 21.03125 35.542969 21.054688 C 35.5625 21.070312 35.566406 21.125 35.546875 21.164062 Z M 49.101562 21.621094 C 49.101562 21.648438 49.078125 21.679688 49.042969 21.679688 C 49.015625 21.679688 48.984375 21.648438 48.984375 21.621094 C 48.984375 21.585938 49.015625 21.5625 49.042969 21.5625 C 49.078125 21.5625 49.101562 21.585938 49.101562 21.621094 Z M 51.679688 21.621094 C 51.679688 21.648438 51.667969 21.679688 51.65625 21.679688 C 51.640625 21.679688 51.609375 21.648438 51.59375 21.621094 C 51.574219 21.585938 51.585938 21.5625 51.617188 21.5625 C 51.648438 21.5625 51.679688 21.585938 51.679688 21.621094 Z M 35.609375 22.195312 C 35.585938 22.273438 35.578125 22.265625 35.570312 22.164062 C 35.570312 22.09375 35.542969 22.019531 35.507812 22 C 35.476562 21.984375 35.449219 21.9375 35.449219 21.898438 C 35.449219 21.859375 35.492188 21.890625 35.542969 21.960938 C 35.589844 22.03125 35.617188 22.136719 35.609375 22.195312 Z M 48.96875 22.1875 C 48.949219 22.25 48.9375 22.203125 48.9375 22.089844 C 48.9375 21.976562 48.949219 21.929688 48.96875 21.984375 C 48.976562 22.042969 48.976562 22.136719 48.96875 22.1875 Z M 49.085938 22.453125 C 49.066406 22.492188 49.054688 22.464844 49.054688 22.382812 C 49.054688 22.300781 49.066406 22.273438 49.085938 22.304688 C 49.09375 22.347656 49.09375 22.417969 49.085938 22.453125 Z M 52.070312 22.394531 C 52.054688 22.441406 52.039062 22.421875 52.039062 22.359375 C 52.03125 22.296875 52.046875 22.257812 52.066406 22.28125 C 52.085938 22.300781 52.089844 22.351562 52.070312 22.394531 Z M 48.96875 22.863281 C 48.953125 22.9375 48.945312 22.882812 48.945312 22.734375 C 48.945312 22.585938 48.953125 22.53125 48.96875 22.601562 C 48.976562 22.675781 48.976562 22.792969 48.96875 22.863281 Z M 35.566406 22.675781 C 35.566406 22.703125 35.542969 22.734375 35.507812 22.734375 C 35.476562 22.734375 35.449219 22.703125 35.449219 22.675781 C 35.449219 22.640625 35.476562 22.617188 35.507812 22.617188 C 35.542969 22.617188 35.566406 22.640625 35.566406 22.675781 Z M 42.695312 22.804688 C 42.679688 22.851562 42.664062 22.835938 42.664062 22.769531 C 42.65625 22.703125 42.671875 22.671875 42.691406 22.695312 C 42.710938 22.710938 42.714844 22.765625 42.695312 22.804688 Z M 53.121094 23.421875 C 53.078125 23.460938 52.96875 23.378906 52.96875 23.308594 C 52.96875 23.273438 53.003906 23.273438 53.054688 23.320312 C 53.109375 23.359375 53.132812 23.40625 53.121094 23.421875 Z M 35.609375 23.890625 C 35.589844 23.945312 35.578125 23.914062 35.578125 23.820312 C 35.578125 23.71875 35.589844 23.679688 35.609375 23.710938 C 35.617188 23.753906 35.617188 23.835938 35.609375 23.890625 Z M 53.554688 23.9375 C 53.554688 23.984375 53.542969 24.023438 53.53125 24.023438 C 53.519531 24.023438 53.496094 23.984375 53.472656 23.9375 C 53.453125 23.890625 53.46875 23.847656 53.496094 23.847656 C 53.53125 23.847656 53.554688 23.890625 53.554688 23.9375 Z M 53.730469 24.058594 C 53.730469 24.105469 53.703125 24.128906 53.671875 24.109375 C 53.636719 24.085938 53.625 24.046875 53.640625 24.015625 C 53.695312 23.9375 53.730469 23.953125 53.730469 24.058594 Z M 35.390625 24.199219 C 35.390625 24.226562 35.359375 24.257812 35.328125 24.257812 C 35.296875 24.257812 35.285156 24.226562 35.304688 24.199219 C 35.320312 24.164062 35.351562 24.140625 35.367188 24.140625 C 35.378906 24.140625 35.390625 24.164062 35.390625 24.199219 Z M 48.695312 24.5625 C 48.664062 24.667969 48.648438 24.640625 48.648438 24.433594 C 48.648438 24.226562 48.664062 24.199219 48.695312 24.304688 C 48.726562 24.375 48.726562 24.492188 48.695312 24.5625 Z M 53.640625 24.316406 C 53.660156 24.34375 53.648438 24.375 53.617188 24.375 C 53.585938 24.375 53.554688 24.34375 53.554688 24.316406 C 53.554688 24.28125 53.566406 24.257812 53.578125 24.257812 C 53.59375 24.257812 53.625 24.28125 53.640625 24.316406 Z M 35.15625 24.785156 C 35.15625 24.8125 35.125 24.84375 35.09375 24.84375 C 35.0625 24.84375 35.050781 24.8125 35.070312 24.785156 C 35.085938 24.75 35.117188 24.726562 35.132812 24.726562 C 35.144531 24.726562 35.15625 24.75 35.15625 24.785156 Z M 41.453125 25.113281 C 41.40625 25.207031 41.367188 25.324219 41.367188 25.371094 C 41.367188 25.445312 41.359375 25.445312 41.308594 25.371094 C 41.28125 25.324219 41.273438 25.273438 41.296875 25.253906 C 41.320312 25.234375 41.375 25.15625 41.421875 25.066406 C 41.46875 24.972656 41.515625 24.914062 41.523438 24.925781 C 41.539062 24.929688 41.507812 25.019531 41.453125 25.113281 Z M 48.234375 25.265625 C 48.1875 25.3125 48.179688 25.289062 48.203125 25.1875 C 48.226562 25.113281 48.25 25.085938 48.269531 25.132812 C 48.28125 25.171875 48.265625 25.234375 48.234375 25.265625 Z M 48.265625 25.5 C 48.246094 25.546875 48.226562 25.53125 48.226562 25.464844 C 48.222656 25.398438 48.242188 25.367188 48.257812 25.390625 C 48.273438 25.40625 48.28125 25.460938 48.265625 25.5 Z M 53.945312 25.703125 C 53.929688 25.765625 53.917969 25.726562 53.917969 25.632812 C 53.917969 25.535156 53.929688 25.492188 53.945312 25.53125 C 53.960938 25.570312 53.960938 25.652344 53.945312 25.703125 Z M 41.289062 25.675781 C 41.273438 25.722656 41.257812 25.703125 41.257812 25.640625 C 41.25 25.578125 41.265625 25.539062 41.285156 25.5625 C 41.304688 25.582031 41.308594 25.632812 41.289062 25.675781 Z M 48.046875 25.722656 C 48.046875 25.75 48.015625 25.78125 47.984375 25.78125 C 47.953125 25.78125 47.941406 25.75 47.960938 25.722656 C 47.976562 25.6875 48.007812 25.664062 48.023438 25.664062 C 48.035156 25.664062 48.046875 25.6875 48.046875 25.722656 Z M 34.140625 26.027344 C 34.125 26.074219 34.109375 26.054688 34.109375 25.992188 C 34.101562 25.929688 34.117188 25.890625 34.136719 25.914062 C 34.15625 25.933594 34.160156 25.984375 34.140625 26.027344 Z M 33.929688 26.148438 C 33.882812 26.195312 33.867188 26.191406 33.867188 26.125 C 33.867188 26.074219 33.882812 26.015625 33.90625 25.992188 C 33.929688 25.96875 33.960938 25.980469 33.972656 26.015625 C 33.992188 26.054688 33.96875 26.117188 33.929688 26.148438 Z M 54.140625 26.203125 C 54.140625 26.261719 54.117188 26.308594 54.082031 26.308594 C 54.054688 26.308594 54.023438 26.21875 54.023438 26.117188 C 54.023438 25.976562 54.039062 25.953125 54.082031 26.015625 C 54.109375 26.0625 54.140625 26.148438 54.140625 26.203125 Z M 53.945312 26.203125 C 53.929688 26.242188 53.917969 26.214844 53.917969 26.132812 C 53.917969 26.050781 53.929688 26.023438 53.945312 26.054688 C 53.960938 26.097656 53.960938 26.167969 53.945312 26.203125 Z M 47.617188 26.453125 C 47.59375 26.5 47.554688 26.542969 47.519531 26.542969 C 47.484375 26.542969 47.484375 26.5 47.53125 26.425781 C 47.613281 26.296875 47.671875 26.3125 47.617188 26.453125 Z M 41.367188 26.390625 C 41.367188 26.40625 41.34375 26.4375 41.308594 26.453125 C 41.28125 26.472656 41.25 26.460938 41.25 26.429688 C 41.25 26.398438 41.28125 26.367188 41.308594 26.367188 C 41.34375 26.367188 41.367188 26.378906 41.367188 26.390625 Z M 41.507812 26.578125 C 41.5625 26.71875 41.546875 26.742188 41.453125 26.660156 C 41.355469 26.578125 41.335938 26.484375 41.421875 26.484375 C 41.449219 26.484375 41.492188 26.523438 41.507812 26.578125 Z M 47.320312 26.8125 C 47.332031 26.945312 47.328125 26.953125 47.257812 26.851562 C 47.195312 26.777344 47.195312 26.734375 47.242188 26.707031 C 47.285156 26.683594 47.3125 26.660156 47.3125 26.660156 C 47.3125 26.660156 47.320312 26.726562 47.320312 26.8125 Z M 41.953125 27.070312 C 41.953125 27.101562 41.941406 27.128906 41.929688 27.128906 C 41.914062 27.128906 41.882812 27.101562 41.867188 27.070312 C 41.847656 27.035156 41.859375 27.011719 41.890625 27.011719 C 41.921875 27.011719 41.953125 27.035156 41.953125 27.070312 Z M 47.050781 27.0625 C 47.050781 27.09375 47.007812 27.132812 46.957031 27.152344 C 46.875 27.179688 46.867188 27.175781 46.933594 27.101562 C 47.015625 27 47.050781 26.988281 47.050781 27.0625 Z M 54.023438 27.742188 C 54.023438 27.773438 53.992188 27.761719 53.964844 27.714844 C 53.9375 27.667969 53.90625 27.597656 53.90625 27.570312 C 53.90625 27.53125 53.9375 27.550781 53.964844 27.597656 C 53.992188 27.644531 54.023438 27.710938 54.023438 27.742188 Z M 54.199219 27.597656 C 54.199219 27.625 54.175781 27.65625 54.140625 27.65625 C 54.109375 27.65625 54.082031 27.625 54.082031 27.597656 C 54.082031 27.5625 54.109375 27.539062 54.140625 27.539062 C 54.175781 27.539062 54.199219 27.5625 54.199219 27.597656 Z M 46.722656 28.054688 C 46.746094 28.09375 46.734375 28.125 46.703125 28.125 C 46.671875 28.125 46.640625 28.078125 46.640625 28.019531 C 46.632812 27.929688 46.628906 27.929688 46.554688 28.03125 C 46.476562 28.132812 46.464844 28.132812 46.464844 28.054688 C 46.464844 28 46.492188 27.9375 46.523438 27.921875 C 46.558594 27.902344 46.585938 27.8125 46.585938 27.726562 C 46.59375 27.59375 46.601562 27.597656 46.632812 27.773438 C 46.65625 27.890625 46.699219 28.015625 46.722656 28.054688 Z M 53.945312 28.019531 C 53.929688 28.0625 53.917969 28.03125 53.917969 27.949219 C 53.917969 27.867188 53.929688 27.835938 53.945312 27.875 C 53.960938 27.914062 53.960938 27.984375 53.945312 28.019531 Z M 42.289062 28.007812 C 42.292969 28.070312 42.273438 28.125 42.242188 28.125 C 42.210938 28.125 42.1875 28.070312 42.1875 28.007812 C 42.1875 27.945312 42.210938 27.890625 42.234375 27.890625 C 42.257812 27.890625 42.28125 27.945312 42.289062 28.007812 Z M 42.921875 28.476562 C 42.960938 28.617188 42.953125 28.617188 42.875 28.507812 C 42.828125 28.441406 42.765625 28.324219 42.742188 28.242188 C 42.703125 28.101562 42.710938 28.101562 42.789062 28.210938 C 42.835938 28.277344 42.898438 28.394531 42.921875 28.476562 Z M 33.554688 28.722656 C 33.539062 28.769531 33.523438 28.75 33.523438 28.6875 C 33.515625 28.625 33.53125 28.585938 33.550781 28.609375 C 33.570312 28.628906 33.574219 28.679688 33.554688 28.722656 Z M 33.734375 28.722656 C 33.714844 28.769531 33.695312 28.75 33.695312 28.6875 C 33.691406 28.625 33.710938 28.585938 33.726562 28.609375 C 33.742188 28.628906 33.75 28.679688 33.734375 28.722656 Z M 42.859375 28.769531 C 42.878906 28.796875 42.855469 28.828125 42.808594 28.828125 C 42.757812 28.828125 42.714844 28.796875 42.714844 28.769531 C 42.714844 28.734375 42.738281 28.710938 42.765625 28.710938 C 42.804688 28.710938 42.84375 28.734375 42.859375 28.769531 Z M 50.304688 29.121094 C 50.285156 29.148438 50.242188 29.179688 50.210938 29.179688 C 50.179688 29.179688 50.15625 29.148438 50.15625 29.121094 C 50.15625 29.085938 50.195312 29.0625 50.25 29.0625 C 50.296875 29.0625 50.320312 29.085938 50.304688 29.121094 Z M 50.9375 29.101562 C 50.894531 29.117188 50.824219 29.117188 50.789062 29.101562 C 50.75 29.085938 50.777344 29.074219 50.859375 29.074219 C 50.941406 29.074219 50.96875 29.085938 50.9375 29.101562 Z M 46.867188 29.472656 C 46.867188 29.523438 46.84375 29.519531 46.816406 29.445312 C 46.789062 29.378906 46.765625 29.285156 46.765625 29.238281 C 46.765625 29.1875 46.789062 29.191406 46.816406 29.265625 C 46.84375 29.332031 46.867188 29.425781 46.867188 29.472656 Z M 50.992188 29.21875 C 50.917969 29.234375 50.800781 29.234375 50.730469 29.21875 C 50.65625 29.210938 50.710938 29.195312 50.859375 29.195312 C 51.007812 29.195312 51.0625 29.210938 50.992188 29.21875 Z M 51.386719 29.238281 C 51.433594 29.265625 51.453125 29.308594 51.433594 29.332031 C 51.375 29.382812 51.210938 29.3125 51.210938 29.238281 C 51.210938 29.167969 51.269531 29.164062 51.386719 29.238281 Z M 53.085938 29.382812 C 53.046875 29.429688 53.003906 29.472656 53 29.472656 C 52.984375 29.472656 52.96875 29.429688 52.945312 29.382812 C 52.921875 29.328125 52.953125 29.296875 53.039062 29.296875 C 53.140625 29.296875 53.144531 29.308594 53.085938 29.382812 Z M 49.335938 29.613281 C 49.335938 29.632812 49.3125 29.660156 49.277344 29.679688 C 49.25 29.695312 49.21875 29.683594 49.21875 29.65625 C 49.21875 29.617188 49.25 29.589844 49.277344 29.589844 C 49.3125 29.589844 49.335938 29.601562 49.335938 29.613281 Z M 49.511719 29.730469 C 49.511719 29.742188 49.46875 29.765625 49.421875 29.789062 C 49.375 29.804688 49.335938 29.796875 49.335938 29.765625 C 49.335938 29.730469 49.375 29.707031 49.421875 29.707031 C 49.46875 29.707031 49.511719 29.71875 49.511719 29.730469 Z M 48.898438 30.082031 C 48.832031 30.128906 48.742188 30.148438 48.695312 30.128906 C 48.625 30.105469 48.632812 30.085938 48.726562 30.054688 C 48.925781 29.976562 49.019531 29.988281 48.898438 30.082031 Z M 48.398438 30.082031 C 48.398438 30.101562 48.375 30.128906 48.339844 30.148438 C 48.3125 30.164062 48.28125 30.152344 48.28125 30.125 C 48.28125 30.085938 48.3125 30.058594 48.339844 30.058594 C 48.375 30.058594 48.398438 30.070312 48.398438 30.082031 Z M 47.492188 30.175781 C 47.507812 30.203125 47.484375 30.234375 47.4375 30.234375 C 47.382812 30.234375 47.34375 30.203125 47.34375 30.175781 C 47.34375 30.140625 47.367188 30.117188 47.398438 30.117188 C 47.429688 30.117188 47.472656 30.140625 47.492188 30.175781 Z M 48.632812 30.226562 C 48.632812 30.3125 48.414062 30.367188 48.328125 30.316406 C 48.273438 30.28125 48.296875 30.257812 48.398438 30.226562 C 48.609375 30.171875 48.632812 30.171875 48.632812 30.226562 Z M 42.949219 30.527344 C 42.949219 30.554688 42.925781 30.585938 42.890625 30.585938 C 42.859375 30.585938 42.832031 30.554688 42.832031 30.527344 C 42.832031 30.492188 42.859375 30.46875 42.890625 30.46875 C 42.925781 30.46875 42.949219 30.492188 42.949219 30.527344 Z M 38.90625 30.621094 C 38.90625 30.703125 38.890625 30.703125 38.820312 30.644531 C 38.773438 30.601562 38.730469 30.5625 38.730469 30.550781 C 38.730469 30.539062 38.773438 30.527344 38.820312 30.527344 C 38.867188 30.527344 38.90625 30.570312 38.90625 30.621094 Z M 38.054688 30.644531 C 38.074219 30.671875 38.0625 30.703125 38.03125 30.703125 C 38 30.703125 37.96875 30.671875 37.96875 30.644531 C 37.96875 30.609375 37.980469 30.585938 37.992188 30.585938 C 38.007812 30.585938 38.039062 30.609375 38.054688 30.644531 Z M 42.832031 30.695312 C 42.832031 30.734375 42.808594 30.773438 42.773438 30.789062 C 42.742188 30.808594 42.714844 30.785156 42.714844 30.738281 C 42.714844 30.6875 42.742188 30.644531 42.773438 30.644531 C 42.808594 30.644531 42.832031 30.667969 42.832031 30.695312 Z M 36.757812 31.039062 C 36.714844 31.046875 36.644531 31.046875 36.609375 31.039062 C 36.570312 31.019531 36.597656 31.007812 36.679688 31.007812 C 36.761719 31.007812 36.789062 31.019531 36.757812 31.039062 Z M 42.433594 31.183594 C 42.390625 31.226562 42.363281 31.230469 42.363281 31.195312 C 42.363281 31.113281 42.433594 31.042969 42.476562 31.085938 C 42.484375 31.101562 42.46875 31.148438 42.433594 31.183594 Z M 34.511719 31.171875 C 34.511719 31.203125 34.5 31.230469 34.488281 31.230469 C 34.46875 31.230469 34.441406 31.203125 34.421875 31.171875 C 34.40625 31.136719 34.417969 31.113281 34.445312 31.113281 C 34.484375 31.113281 34.511719 31.136719 34.511719 31.171875 Z M 40.25 31.195312 C 40.300781 31.257812 40.28125 31.265625 40.164062 31.242188 C 40.085938 31.230469 40.019531 31.195312 40.019531 31.164062 C 40.019531 31.085938 40.171875 31.101562 40.25 31.195312 Z M 35.8125 31.484375 C 35.730469 31.515625 35.660156 31.523438 35.625 31.488281 C 35.59375 31.460938 35.648438 31.4375 35.757812 31.429688 C 35.9375 31.421875 35.9375 31.421875 35.8125 31.484375 Z M 42.039062 31.464844 C 41.976562 31.492188 41.777344 31.511719 41.601562 31.511719 L 41.28125 31.507812 L 41.601562 31.464844 C 41.777344 31.441406 41.976562 31.421875 42.039062 31.417969 L 42.15625 31.414062 Z M 35 31.507812 C 34.957031 31.515625 34.886719 31.515625 34.851562 31.507812 C 34.8125 31.488281 34.839844 31.476562 34.921875 31.476562 C 35.003906 31.476562 35.03125 31.488281 35 31.507812 Z M 35.359375 31.523438 C 35.34375 31.554688 35.285156 31.582031 35.238281 31.582031 C 35.191406 31.582031 35.15625 31.554688 35.15625 31.523438 C 35.15625 31.488281 35.210938 31.464844 35.28125 31.464844 C 35.34375 31.464844 35.378906 31.488281 35.359375 31.523438 Z M 35.359375 31.523438 "/>
<path style=" stroke:none;fill-rule:nonzero;fill:rgb(0%,0%,0%);fill-opacity:1;" d="M 37.773438 17.09375 C 37.75 17.109375 37.734375 17.15625 37.734375 17.191406 C 37.734375 17.226562 37.765625 17.21875 37.804688 17.179688 C 37.839844 17.144531 37.859375 17.097656 37.84375 17.078125 C 37.828125 17.0625 37.792969 17.070312 37.773438 17.09375 Z M 37.773438 17.09375 "/>
<path style=" stroke:none;fill-rule:nonzero;fill:rgb(0%,0%,0%);fill-opacity:1;" d="M 51.339844 18.867188 C 51.339844 18.949219 51.351562 18.976562 51.367188 18.9375 C 51.382812 18.902344 51.382812 18.832031 51.367188 18.789062 C 51.351562 18.757812 51.339844 18.785156 51.339844 18.867188 Z M 51.339844 18.867188 "/>
<path style=" stroke:none;fill-rule:nonzero;fill:rgb(0%,0%,0%);fill-opacity:1;" d="M 42.742188 25.394531 C 42.585938 25.46875 42.386719 25.554688 42.3125 25.585938 L 42.171875 25.640625 L 42.367188 25.835938 C 42.480469 25.9375 42.710938 26.121094 42.882812 26.234375 C 43.15625 26.40625 43.257812 26.445312 43.652344 26.46875 C 44.078125 26.496094 44.121094 26.492188 44.472656 26.304688 C 44.871094 26.09375 45.4375 25.609375 45.292969 25.605469 C 45.246094 25.605469 45.039062 25.53125 44.847656 25.4375 C 44.507812 25.277344 44.4375 25.265625 43.765625 25.265625 C 43.132812 25.265625 42.996094 25.28125 42.742188 25.394531 Z M 42.742188 25.394531 "/>
<path style=" stroke:none;fill-rule:nonzero;fill:rgb(0%,0%,0%);fill-opacity:1;" d="M 54.117188 28.046875 C 54.105469 28.109375 54.070312 28.21875 54.054688 28.300781 C 54.023438 28.398438 54.03125 28.429688 54.070312 28.390625 C 54.132812 28.324219 54.226562 27.949219 54.175781 27.949219 C 54.164062 27.949219 54.132812 27.996094 54.117188 28.046875 Z M 54.117188 28.046875 "/>
<path style=" stroke:none;fill-rule:nonzero;fill:rgb(0%,0%,0%);fill-opacity:1;" d="M 33.410156 28.242188 C 33.410156 28.324219 33.421875 28.351562 33.4375 28.3125 C 33.453125 28.277344 33.453125 28.207031 33.4375 28.164062 C 33.421875 28.132812 33.410156 28.160156 33.410156 28.242188 Z M 33.410156 28.242188 "/>
<path style=" stroke:none;fill-rule:nonzero;fill:rgb(0%,0%,0%);fill-opacity:1;" d="M 21.476562 51.671875 C 19.664062 52.117188 18.742188 54.039062 19.539062 55.703125 C 20.40625 57.503906 22.90625 57.90625 24.210938 56.460938 C 24.632812 56 24.902344 55.3125 24.902344 54.714844 L 24.902344 54.433594 L 22.265625 54.433594 L 22.265625 55.371094 L 22.960938 55.371094 C 23.351562 55.371094 23.679688 55.394531 23.695312 55.421875 C 23.75 55.507812 23.402344 55.992188 23.195312 56.121094 C 23.085938 56.1875 22.835938 56.273438 22.632812 56.308594 C 21.757812 56.484375 20.847656 56.046875 20.46875 55.273438 C 20.335938 55 20.308594 54.867188 20.308594 54.5 C 20.3125 53.988281 20.390625 53.707031 20.632812 53.351562 C 21.128906 52.617188 22.300781 52.371094 23.289062 52.792969 C 23.578125 52.914062 24.058594 53.328125 24.109375 53.5 C 24.15625 53.648438 24.210938 53.640625 24.3125 53.484375 C 24.554688 53.09375 24.5 52.648438 24.152344 52.277344 C 23.867188 51.960938 23.476562 51.761719 22.945312 51.65625 C 22.390625 51.539062 21.996094 51.546875 21.476562 51.671875 Z M 21.476562 51.671875 "/>
<path style=" stroke:none;fill-rule:nonzero;fill:rgb(0%,0%,0%);fill-opacity:1;" d="M 37.234375 51.761719 C 36.90625 51.914062 36.601562 52.207031 36.507812 52.460938 C 36.429688 52.675781 36.429688 53.132812 36.507812 53.382812 C 36.621094 53.707031 36.976562 54.140625 37.5 54.578125 C 38.4375 55.375 38.554688 55.515625 38.554688 55.84375 C 38.554688 56.101562 38.40625 56.25 38.101562 56.289062 C 37.722656 56.34375 37.40625 56.214844 37.0625 55.882812 C 36.890625 55.710938 36.742188 55.535156 36.726562 55.492188 C 36.710938 55.429688 36.640625 55.453125 36.4375 55.605469 C 35.894531 56.027344 35.914062 56.003906 36.035156 56.210938 C 36.242188 56.542969 36.632812 56.894531 37.023438 57.082031 C 37.335938 57.242188 37.492188 57.28125 37.863281 57.296875 C 38.632812 57.335938 39.175781 57.046875 39.476562 56.46875 C 39.601562 56.203125 39.621094 56.117188 39.597656 55.746094 C 39.554688 55.089844 39.269531 54.695312 38.25 53.894531 C 37.632812 53.40625 37.5 53.25 37.5 52.992188 C 37.5 52.484375 38.398438 52.417969 38.871094 52.898438 C 38.988281 53.007812 39.082031 53.132812 39.082031 53.167969 C 39.082031 53.195312 39.15625 53.148438 39.257812 53.054688 C 39.59375 52.734375 39.539062 52.257812 39.128906 51.953125 C 38.65625 51.601562 37.773438 51.515625 37.234375 51.761719 Z M 37.234375 51.761719 "/>
<path style=" stroke:none;fill-rule:nonzero;fill:rgb(0%,0%,0%);fill-opacity:1;" d="M 42.339844 51.714844 C 41.460938 51.925781 40.773438 52.53125 40.421875 53.382812 C 40.3125 53.648438 40.289062 53.820312 40.289062 54.433594 C 40.28125 55.078125 40.300781 55.207031 40.421875 55.515625 C 40.609375 55.980469 40.828125 56.296875 41.1875 56.613281 C 41.757812 57.128906 42.382812 57.335938 43.265625 57.292969 C 43.734375 57.273438 43.859375 57.246094 44.238281 57.0625 C 44.65625 56.867188 45.316406 56.34375 45.28125 56.25 C 45.269531 56.21875 45.132812 56.070312 44.984375 55.90625 L 44.703125 55.605469 L 44.449219 55.8125 C 43.789062 56.351562 42.949219 56.496094 42.292969 56.171875 C 41.683594 55.875 41.367188 55.359375 41.320312 54.601562 C 41.238281 53.25 42.234375 52.371094 43.535156 52.640625 C 44.164062 52.773438 44.414062 52.945312 44.804688 53.492188 C 44.859375 53.5625 45.058594 53.261719 45.125 53.023438 C 45.210938 52.695312 45.164062 52.5 44.941406 52.242188 C 44.472656 51.710938 43.324219 51.476562 42.339844 51.714844 Z M 42.339844 51.714844 "/>
<path style=" stroke:none;fill-rule:nonzero;fill:rgb(0%,0%,0%);fill-opacity:1;" d="M 52.820312 51.726562 C 52.324219 51.878906 52.042969 52.039062 51.703125 52.367188 C 51.101562 52.9375 50.800781 53.640625 50.800781 54.453125 C 50.800781 54.714844 50.828125 55.046875 50.867188 55.1875 C 51.085938 56.164062 51.953125 57.011719 52.960938 57.246094 C 53.398438 57.34375 54.203125 57.292969 54.601562 57.132812 C 55.484375 56.78125 56.121094 56.046875 56.335938 55.132812 C 56.449219 54.65625 56.449219 54.328125 56.335938 53.859375 C 56.101562 52.882812 55.488281 52.15625 54.550781 51.78125 C 54.15625 51.617188 53.273438 51.59375 52.820312 51.726562 Z M 54.34375 52.765625 C 54.476562 52.828125 54.703125 53.003906 54.855469 53.15625 C 55.53125 53.84375 55.558594 55.015625 54.925781 55.722656 C 54.554688 56.125 54.273438 56.261719 53.726562 56.296875 C 52.90625 56.34375 52.371094 56.046875 52.019531 55.328125 C 51.507812 54.292969 51.96875 53.085938 53.007812 52.699219 C 53.3125 52.582031 54.039062 52.625 54.34375 52.765625 Z M 54.34375 52.765625 "/>
<path style=" stroke:none;fill-rule:nonzero;fill:rgb(0%,0%,0%);fill-opacity:1;" d="M 59.085938 51.734375 C 58.15625 51.996094 57.410156 52.769531 57.132812 53.757812 C 57.054688 54.054688 57.054688 54.84375 57.132812 55.1875 C 57.3125 55.957031 57.875 56.648438 58.628906 57.023438 C 59.09375 57.25 59.164062 57.269531 59.730469 57.292969 C 60.246094 57.316406 60.390625 57.296875 60.71875 57.195312 C 62.382812 56.636719 63.152344 54.804688 62.390625 53.203125 C 62.171875 52.746094 61.570312 52.125 61.15625 51.921875 C 60.507812 51.609375 59.753906 51.539062 59.085938 51.734375 Z M 60.695312 52.820312 C 61.039062 53.007812 61.28125 53.261719 61.476562 53.632812 C 61.585938 53.835938 61.609375 53.96875 61.609375 54.460938 C 61.609375 54.953125 61.585938 55.089844 61.476562 55.324219 C 61.3125 55.652344 60.996094 55.980469 60.671875 56.144531 C 60.390625 56.289062 59.671875 56.355469 59.328125 56.257812 C 58.921875 56.144531 58.53125 55.796875 58.300781 55.347656 C 58.113281 54.984375 58.09375 54.898438 58.09375 54.46875 C 58.101562 54.078125 58.132812 53.9375 58.257812 53.660156 C 58.460938 53.25 58.890625 52.84375 59.28125 52.71875 C 59.707031 52.5625 60.304688 52.609375 60.695312 52.820312 Z M 60.695312 52.820312 "/>
<path style=" stroke:none;fill-rule:nonzero;fill:rgb(0%,0%,0%);fill-opacity:1;" d="M 10.28125 51.738281 C 10.070312 51.820312 10.023438 51.9375 9.914062 52.625 L 9.808594 53.289062 L 9.507812 53.320312 C 9.175781 53.355469 9.039062 53.445312 8.921875 53.710938 C 8.800781 54.011719 8.820312 54.023438 9.25 54.023438 C 9.480469 54.023438 9.671875 54.039062 9.6875 54.0625 C 9.695312 54.09375 9.679688 54.25 9.648438 54.414062 L 9.597656 54.726562 L 8.75 54.726562 L 8.707031 54.945312 C 8.632812 55.429688 8.632812 55.429688 9.046875 55.429688 C 9.257812 55.429688 9.4375 55.453125 9.460938 55.484375 C 9.480469 55.511719 9.457031 55.757812 9.410156 56.027344 C 9.363281 56.296875 9.3125 56.664062 9.289062 56.847656 L 9.246094 57.1875 L 9.945312 57.1875 L 9.976562 56.964844 C 9.996094 56.847656 10.054688 56.449219 10.109375 56.085938 L 10.207031 55.429688 L 10.554688 55.429688 C 10.820312 55.429688 10.898438 55.445312 10.898438 55.515625 C 10.898438 55.605469 10.757812 56.617188 10.695312 56.992188 C 10.65625 57.1875 10.664062 57.1875 10.890625 57.1875 C 11.050781 57.1875 11.171875 57.148438 11.273438 57.054688 C 11.40625 56.941406 11.4375 56.835938 11.523438 56.191406 L 11.632812 55.460938 L 11.894531 55.441406 C 12.242188 55.417969 12.375 55.289062 12.503906 54.855469 C 12.546875 54.734375 12.53125 54.726562 12.152344 54.726562 L 11.757812 54.726562 L 11.800781 54.457031 C 11.820312 54.304688 11.835938 54.148438 11.835938 54.105469 C 11.835938 54.039062 11.941406 54.023438 12.246094 54.023438 C 12.632812 54.023438 12.65625 54.015625 12.65625 53.890625 C 12.65625 53.820312 12.671875 53.660156 12.691406 53.539062 L 12.734375 53.320312 L 11.945312 53.320312 L 11.984375 53.125 C 12.015625 52.898438 12.1875 51.75 12.1875 51.710938 C 12.1875 51.691406 12.039062 51.679688 11.867188 51.679688 C 11.585938 51.679688 11.53125 51.695312 11.484375 51.808594 C 11.445312 51.914062 11.25 53.125 11.25 53.285156 C 11.25 53.304688 11.09375 53.320312 10.898438 53.320312 C 10.488281 53.320312 10.507812 53.378906 10.632812 52.535156 C 10.757812 51.714844 10.757812 51.679688 10.5625 51.6875 C 10.46875 51.6875 10.347656 51.710938 10.28125 51.738281 Z M 11.09375 54.0625 C 11.109375 54.09375 11.101562 54.25 11.09375 54.414062 L 11.054688 54.726562 L 10.304688 54.726562 L 10.34375 54.445312 C 10.398438 54.015625 10.394531 54.023438 10.746094 54.023438 C 10.921875 54.023438 11.078125 54.039062 11.09375 54.0625 Z M 11.09375 54.0625 "/>
<path style=" stroke:none;fill-rule:nonzero;fill:rgb(0%,0%,0%);fill-opacity:1;" d="M 14.03125 51.738281 C 13.875 51.804688 13.675781 52.023438 13.601562 52.226562 C 13.558594 52.328125 13.535156 53.234375 13.535156 54.789062 L 13.535156 57.1875 L 14.589844 57.1875 L 14.589844 51.679688 L 14.375 51.6875 C 14.25 51.6875 14.097656 51.710938 14.03125 51.738281 Z M 14.03125 51.738281 "/>
<path style=" stroke:none;fill-rule:nonzero;fill:rgb(0%,0%,0%);fill-opacity:1;" d="M 15.410156 52.140625 C 15.410156 52.6875 15.390625 52.675781 16.140625 52.65625 L 16.609375 52.652344 L 16.628906 54.914062 L 16.640625 57.175781 L 17.007812 57.199219 C 17.210938 57.203125 17.445312 57.210938 17.53125 57.199219 L 17.695312 57.179688 L 17.707031 54.925781 L 17.726562 52.671875 L 18.148438 52.652344 C 18.421875 52.640625 18.625 52.601562 18.75 52.523438 C 18.972656 52.394531 19.160156 52.078125 19.160156 51.84375 L 19.160156 51.679688 L 15.410156 51.679688 Z M 15.410156 52.140625 "/>
<path style=" stroke:none;fill-rule:nonzero;fill:rgb(0%,0%,0%);fill-opacity:1;" d="M 26.074219 51.808594 C 25.960938 51.882812 25.839844 52.015625 25.796875 52.089844 C 25.742188 52.203125 25.722656 52.851562 25.722656 54.710938 L 25.722656 57.1875 L 26.777344 57.1875 L 26.765625 54.445312 L 26.75 51.710938 L 26.515625 51.691406 C 26.335938 51.679688 26.21875 51.710938 26.074219 51.808594 Z M 26.074219 51.808594 "/>
<path style=" stroke:none;fill-rule:nonzero;fill:rgb(0%,0%,0%);fill-opacity:1;" d="M 28.125 51.78125 C 28.015625 51.835938 27.859375 51.972656 27.789062 52.085938 C 27.65625 52.28125 27.65625 52.28125 27.65625 54.734375 L 27.65625 57.1875 L 28.710938 57.1875 L 28.722656 56.117188 L 28.742188 55.046875 L 29.34375 55.8125 C 29.679688 56.226562 30.015625 56.660156 30.105469 56.773438 C 30.4375 57.203125 30.398438 57.179688 31.007812 57.195312 C 31.324219 57.203125 31.59375 57.195312 31.609375 57.175781 C 31.648438 57.148438 30.507812 55.625 30.386719 55.539062 C 30.359375 55.515625 30.4375 55.4375 30.5625 55.351562 C 30.90625 55.136719 31.148438 54.855469 31.328125 54.460938 C 31.46875 54.152344 31.492188 54.039062 31.492188 53.523438 C 31.492188 52.992188 31.476562 52.910156 31.320312 52.601562 C 31.125 52.210938 30.914062 52.007812 30.527344 51.832031 C 30.304688 51.734375 30.117188 51.710938 29.296875 51.691406 C 28.453125 51.671875 28.304688 51.6875 28.125 51.78125 Z M 30.058594 52.75 C 30.132812 52.792969 30.265625 52.914062 30.335938 53.023438 C 30.523438 53.304688 30.523438 53.867188 30.339844 54.140625 C 30.117188 54.457031 29.875 54.550781 29.257812 54.550781 L 28.710938 54.550781 L 28.710938 52.675781 L 29.3125 52.675781 C 29.671875 52.675781 29.96875 52.703125 30.058594 52.75 Z M 30.058594 52.75 "/>
<path style=" stroke:none;fill-rule:nonzero;fill:rgb(0%,0%,0%);fill-opacity:1;" d="M 32.960938 51.71875 C 32.765625 51.765625 32.53125 52.03125 32.429688 52.3125 C 32.359375 52.535156 32.34375 52.957031 32.34375 54.882812 L 32.34375 57.1875 L 35.273438 57.1875 L 35.273438 56.25 L 33.398438 56.25 L 33.398438 51.679688 L 33.242188 51.6875 C 33.148438 51.691406 33.023438 51.703125 32.960938 51.71875 Z M 32.960938 51.71875 "/>
<path style=" stroke:none;fill-rule:nonzero;fill:rgb(0%,0%,0%);fill-opacity:1;" d="M 46.460938 51.8125 C 46.046875 52.085938 46.054688 52.070312 46.066406 54.78125 L 46.085938 57.210938 L 46.523438 57.199219 C 46.765625 57.199219 47 57.195312 47.039062 57.1875 C 47.09375 57.1875 47.109375 56.921875 47.109375 56.074219 L 47.109375 54.960938 L 48.984375 54.960938 L 48.984375 56.070312 C 48.984375 57.339844 48.925781 57.226562 49.605469 57.199219 L 50.039062 57.175781 L 50.039062 51.679688 L 48.984375 51.679688 L 48.984375 53.964844 L 47.109375 53.964844 L 47.109375 51.679688 L 46.882812 51.679688 C 46.746094 51.679688 46.582031 51.734375 46.460938 51.8125 Z M 46.460938 51.8125 "/>
<path style=" stroke:none;fill-rule:nonzero;fill:rgb(0%,0%,0%);fill-opacity:1;" d="M 63.953125 51.773438 C 63.410156 52.054688 63.398438 52.125 63.398438 54.882812 C 63.398438 56.148438 63.414062 57.1875 63.445312 57.1875 C 63.46875 57.1875 64.117188 57.195312 64.890625 57.195312 L 66.296875 57.199219 L 66.316406 56.726562 L 66.335938 56.257812 L 65.40625 56.238281 L 64.484375 56.21875 L 64.464844 53.945312 L 64.453125 51.679688 L 64.289062 51.679688 C 64.203125 51.679688 64.054688 51.71875 63.953125 51.773438 Z M 63.953125 51.773438 "/>
<path style=" stroke:none;fill-rule:nonzero;fill:rgb(0%,0%,0%);fill-opacity:1;" d="M 24.0625 60.292969 C 23.238281 60.4375 23.023438 61.558594 23.730469 62.03125 C 24.054688 62.257812 24.632812 62.195312 24.914062 61.921875 C 25.28125 61.554688 25.28125 60.84375 24.902344 60.5 C 24.742188 60.351562 24.316406 60.25 24.0625 60.292969 Z M 24.632812 60.679688 C 24.714844 60.726562 24.808594 60.859375 24.84375 60.972656 C 25.042969 61.570312 24.503906 62.0625 23.9375 61.804688 C 23.59375 61.652344 23.5 61.078125 23.757812 60.765625 C 23.976562 60.507812 24.328125 60.476562 24.632812 60.679688 Z M 24.632812 60.679688 "/>
<path style=" stroke:none;fill-rule:nonzero;fill:rgb(0%,0%,0%);fill-opacity:1;" d="M 30.695312 60.316406 C 30.410156 60.410156 30.328125 60.46875 30.152344 60.726562 C 29.894531 61.113281 29.96875 61.605469 30.34375 61.960938 C 30.515625 62.121094 30.570312 62.140625 30.9375 62.140625 C 31.371094 62.140625 31.539062 62.054688 31.78125 61.734375 C 31.960938 61.492188 31.953125 60.96875 31.757812 60.6875 C 31.535156 60.359375 31.078125 60.199219 30.695312 60.316406 Z M 31.421875 60.765625 C 31.554688 60.90625 31.582031 60.996094 31.582031 61.234375 C 31.582031 61.488281 31.554688 61.558594 31.414062 61.703125 C 31.273438 61.84375 31.1875 61.875 30.96875 61.875 C 30.742188 61.875 30.664062 61.84375 30.523438 61.703125 C 30.386719 61.5625 30.351562 61.484375 30.351562 61.265625 C 30.351562 60.921875 30.445312 60.734375 30.667969 60.617188 C 30.921875 60.492188 31.21875 60.550781 31.421875 60.765625 Z M 31.421875 60.765625 "/>
<path style=" stroke:none;fill-rule:nonzero;fill:rgb(0%,0%,0%);fill-opacity:1;" d="M 38.78125 60.292969 C 38.265625 60.433594 37.992188 60.808594 38.046875 61.304688 C 38.09375 61.796875 38.476562 62.167969 38.960938 62.167969 C 39.320312 62.167969 39.515625 62.0625 39.539062 61.859375 L 39.554688 61.695312 L 39.382812 61.78125 C 39.085938 61.933594 38.75 61.90625 38.546875 61.703125 C 38.40625 61.558594 38.378906 61.484375 38.378906 61.242188 C 38.378906 60.902344 38.519531 60.6875 38.804688 60.59375 C 39.007812 60.523438 39.3125 60.578125 39.46875 60.710938 C 39.53125 60.761719 39.550781 60.742188 39.550781 60.601562 C 39.550781 60.480469 39.507812 60.410156 39.421875 60.363281 C 39.246094 60.28125 38.960938 60.246094 38.78125 60.292969 Z M 38.78125 60.292969 "/>
<path style=" stroke:none;fill-rule:nonzero;fill:rgb(0%,0%,0%);fill-opacity:1;" d="M 51.855469 60.292969 C 51.421875 60.367188 51.117188 60.6875 51.058594 61.117188 C 51.023438 61.421875 51.199219 61.828125 51.460938 62.015625 C 51.71875 62.203125 52.351562 62.191406 52.601562 61.992188 C 52.96875 61.695312 53.074219 61.195312 52.859375 60.765625 C 52.675781 60.410156 52.265625 60.222656 51.855469 60.292969 Z M 52.296875 60.621094 C 52.699219 60.8125 52.773438 61.441406 52.421875 61.734375 C 52.265625 61.867188 52.203125 61.882812 51.949219 61.859375 C 51.554688 61.820312 51.386719 61.632812 51.386719 61.230469 C 51.386719 60.8125 51.601562 60.578125 52.019531 60.53125 C 52.066406 60.53125 52.1875 60.570312 52.296875 60.621094 Z M 52.296875 60.621094 "/>
<path style=" stroke:none;fill-rule:nonzero;fill:rgb(0%,0%,0%);fill-opacity:1;" d="M 18.820312 61.210938 C 18.835938 62.121094 18.835938 62.140625 18.972656 62.15625 C 19.101562 62.171875 19.101562 62.171875 19.101562 61.382812 L 19.101562 60.585938 L 20.03125 60.585938 L 20.050781 61.359375 C 20.070312 62.09375 20.074219 62.140625 20.1875 62.140625 C 20.296875 62.140625 20.304688 62.09375 20.320312 61.210938 L 20.335938 60.292969 L 18.804688 60.292969 Z M 18.820312 61.210938 "/>
<path style=" stroke:none;fill-rule:nonzero;fill:rgb(0%,0%,0%);fill-opacity:1;" d="M 21.339844 61.210938 C 21.359375 62.09375 21.363281 62.140625 21.476562 62.140625 C 21.574219 62.140625 21.59375 62.09375 21.609375 61.8125 L 21.625 61.484375 L 21.890625 61.441406 C 22.039062 61.421875 22.234375 61.351562 22.328125 61.28125 C 22.476562 61.179688 22.5 61.125 22.5 60.890625 C 22.5 60.738281 22.476562 60.585938 22.453125 60.550781 C 22.359375 60.40625 22.023438 60.292969 21.679688 60.292969 L 21.320312 60.292969 Z M 22.019531 60.59375 C 22.226562 60.664062 22.28125 60.808594 22.183594 61.007812 C 22.132812 61.113281 22.0625 61.148438 21.867188 61.160156 L 21.621094 61.179688 L 21.621094 60.890625 C 21.621094 60.503906 21.667969 60.46875 22.019531 60.59375 Z M 22.019531 60.59375 "/>
<path style=" stroke:none;fill-rule:nonzero;fill:rgb(0%,0%,0%);fill-opacity:1;" d="M 26.449219 60.390625 C 26.203125 60.515625 25.957031 60.90625 25.957031 61.179688 C 25.957031 61.742188 26.375 62.167969 26.917969 62.167969 C 27.234375 62.167969 27.460938 62.0625 27.507812 61.890625 C 27.554688 61.695312 27.53125 61.679688 27.3125 61.792969 C 27.023438 61.9375 26.613281 61.875 26.445312 61.65625 C 26.265625 61.441406 26.257812 61.019531 26.425781 60.804688 C 26.636719 60.53125 27.132812 60.484375 27.398438 60.710938 C 27.445312 60.742188 27.480469 60.765625 27.484375 60.757812 C 27.53125 60.539062 27.503906 60.453125 27.359375 60.375 C 27.148438 60.269531 26.683594 60.273438 26.449219 60.390625 Z M 26.449219 60.390625 "/>
<path style=" stroke:none;fill-rule:nonzero;fill:rgb(0%,0%,0%);fill-opacity:1;" d="M 28.195312 60.421875 C 28.207031 60.53125 28.253906 60.5625 28.429688 60.574219 L 28.648438 60.59375 L 28.664062 61.367188 C 28.679688 62.117188 28.6875 62.140625 28.816406 62.15625 C 28.945312 62.171875 28.945312 62.167969 28.953125 61.46875 C 28.957031 61.078125 28.960938 60.726562 28.96875 60.6875 C 28.96875 60.644531 29.078125 60.609375 29.226562 60.597656 C 29.445312 60.578125 29.472656 60.5625 29.472656 60.433594 L 29.472656 60.292969 L 28.820312 60.292969 C 28.183594 60.292969 28.179688 60.292969 28.195312 60.421875 Z M 28.195312 60.421875 "/>
<path style=" stroke:none;fill-rule:nonzero;fill:rgb(0%,0%,0%);fill-opacity:1;" d="M 34.464844 60.410156 C 34.183594 60.585938 34.042969 60.851562 34.042969 61.230469 C 34.042969 61.792969 34.421875 62.167969 34.980469 62.167969 C 35.496094 62.167969 35.859375 61.84375 35.90625 61.347656 C 35.964844 60.714844 35.59375 60.292969 34.984375 60.292969 C 34.765625 60.292969 34.601562 60.328125 34.464844 60.410156 Z M 35.308594 60.640625 C 35.679688 60.859375 35.710938 61.445312 35.382812 61.722656 C 35.191406 61.886719 34.839844 61.929688 34.625 61.816406 C 34.359375 61.671875 34.242188 61.09375 34.429688 60.828125 C 34.535156 60.679688 34.820312 60.53125 35.007812 60.527344 C 35.074219 60.527344 35.210938 60.578125 35.308594 60.640625 Z M 35.308594 60.640625 "/>
<path style=" stroke:none;fill-rule:nonzero;fill:rgb(0%,0%,0%);fill-opacity:1;" d="M 40.605469 60.902344 C 40.605469 61.535156 40.535156 61.875 40.394531 61.875 C 40.347656 61.875 40.3125 61.929688 40.3125 61.992188 C 40.3125 62.164062 40.554688 62.144531 40.722656 61.960938 C 40.84375 61.835938 40.863281 61.746094 40.886719 61.203125 L 40.914062 60.585938 L 41.65625 60.585938 L 41.671875 61.359375 C 41.6875 62.09375 41.695312 62.140625 41.804688 62.140625 C 41.917969 62.140625 41.921875 62.09375 41.941406 61.210938 L 41.960938 60.292969 L 40.605469 60.292969 Z M 40.605469 60.902344 "/>
<path style=" stroke:none;fill-rule:nonzero;fill:rgb(0%,0%,0%);fill-opacity:1;" d="M 43.234375 60.433594 C 42.664062 60.828125 42.714844 61.78125 43.324219 62.074219 C 43.582031 62.195312 43.960938 62.191406 44.21875 62.074219 C 44.847656 61.773438 44.890625 60.78125 44.285156 60.410156 C 44 60.242188 43.507812 60.25 43.234375 60.433594 Z M 44.027344 60.609375 C 44.132812 60.65625 44.265625 60.75 44.320312 60.828125 C 44.507812 61.09375 44.390625 61.671875 44.125 61.816406 C 43.976562 61.890625 43.632812 61.890625 43.453125 61.8125 C 43.296875 61.734375 43.125 61.4375 43.125 61.234375 C 43.125 60.984375 43.289062 60.703125 43.488281 60.617188 C 43.734375 60.507812 43.789062 60.507812 44.027344 60.609375 Z M 44.027344 60.609375 "/>
<path style=" stroke:none;fill-rule:nonzero;fill:rgb(0%,0%,0%);fill-opacity:1;" d="M 45.410156 60.320312 C 45.410156 60.339844 45.570312 60.515625 45.761719 60.714844 C 45.953125 60.921875 46.113281 61.113281 46.113281 61.15625 C 46.113281 61.1875 45.953125 61.40625 45.761719 61.628906 C 45.390625 62.054688 45.339844 62.167969 45.515625 62.167969 C 45.648438 62.167969 45.679688 62.140625 46.085938 61.675781 L 46.4375 61.265625 L 46.464844 61.703125 C 46.492188 62.097656 46.507812 62.140625 46.625 62.15625 C 46.746094 62.171875 46.75 62.148438 46.769531 61.71875 L 46.789062 61.257812 L 47.148438 61.703125 C 47.429688 62.050781 47.546875 62.148438 47.664062 62.148438 C 47.84375 62.148438 47.847656 62.117188 47.710938 61.957031 C 47.65625 61.890625 47.476562 61.695312 47.320312 61.507812 L 47.03125 61.164062 L 47.203125 60.976562 C 47.296875 60.875 47.476562 60.679688 47.601562 60.539062 L 47.835938 60.292969 L 47.664062 60.292969 C 47.523438 60.292969 47.421875 60.367188 47.125 60.6875 L 46.765625 61.085938 L 46.757812 60.6875 C 46.757812 60.304688 46.75 60.292969 46.609375 60.292969 C 46.46875 60.292969 46.464844 60.304688 46.464844 60.671875 C 46.464844 60.882812 46.445312 61.054688 46.429688 61.054688 C 46.40625 61.054688 46.34375 60.996094 46.277344 60.921875 C 45.832031 60.40625 45.703125 60.292969 45.5625 60.292969 C 45.480469 60.292969 45.410156 60.304688 45.410156 60.320312 Z M 45.410156 60.320312 "/>
<path style=" stroke:none;fill-rule:nonzero;fill:rgb(0%,0%,0%);fill-opacity:1;" d="M 48.644531 61.210938 C 48.664062 62.09375 48.667969 62.140625 48.78125 62.140625 C 48.882812 62.140625 48.898438 62.09375 48.914062 61.710938 L 48.929688 61.28125 L 49.414062 61.300781 L 49.890625 61.320312 L 49.910156 61.746094 C 49.929688 62.148438 49.933594 62.171875 50.054688 62.15625 C 50.1875 62.140625 50.1875 62.121094 50.1875 61.230469 C 50.1875 60.339844 50.1875 60.320312 50.054688 60.304688 C 49.9375 60.289062 49.929688 60.3125 49.910156 60.625 L 49.890625 60.96875 L 49.414062 60.984375 L 48.925781 61 L 48.925781 60.644531 C 48.925781 60.304688 48.921875 60.292969 48.78125 60.292969 L 48.625 60.292969 Z M 48.644531 61.210938 "/>
<path style=" stroke:none;fill-rule:nonzero;fill:rgb(0%,0%,0%);fill-opacity:1;" d="M 53.941406 60.480469 C 53.921875 60.585938 53.882812 60.914062 53.847656 61.207031 C 53.820312 61.5 53.773438 61.816406 53.753906 61.914062 C 53.71875 62.109375 53.78125 62.191406 53.921875 62.132812 C 54.023438 62.097656 54.058594 61.976562 54.109375 61.421875 C 54.132812 61.21875 54.171875 61.066406 54.199219 61.085938 C 54.222656 61.09375 54.351562 61.296875 54.484375 61.523438 C 54.621094 61.746094 54.738281 61.933594 54.75 61.933594 C 54.761719 61.933594 54.882812 61.734375 55.023438 61.492188 C 55.160156 61.253906 55.289062 61.066406 55.304688 61.085938 C 55.320312 61.101562 55.367188 61.347656 55.394531 61.628906 C 55.453125 62.09375 55.46875 62.140625 55.59375 62.15625 C 55.699219 62.171875 55.722656 62.148438 55.722656 62.023438 C 55.722656 61.769531 55.535156 60.386719 55.492188 60.339844 C 55.476562 60.316406 55.3125 60.539062 55.136719 60.832031 C 54.960938 61.125 54.785156 61.375 54.757812 61.390625 C 54.71875 61.398438 54.539062 61.15625 54.351562 60.851562 C 54.164062 60.546875 54.007812 60.292969 53.992188 60.292969 C 53.988281 60.292969 53.964844 60.382812 53.941406 60.480469 Z M 53.941406 60.480469 "/>
</g>
</svg>
