<svg width="222" height="287" viewBox="0 0 222 287" fill="none" xmlns="http://www.w3.org/2000/svg">
<g id="Gumball">
<g id="Group 251">
<circle id="Ellipse 176" cx="66.9394" cy="189.576" r="49.9394" fill="#C1E5F4"/>
<g id="Group 246">
<g id="Ellipse 155" filter="url(#filter0_dddd_1550_6618)">
<circle cx="40.757" cy="207.031" r="12.1212" transform="rotate(-90 40.757 207.031)" fill="#31D4B8"/>
</g>
<g id="Group 242">
<circle id="Ellipse 109" cx="36.4797" cy="200.614" r="0.926025" transform="rotate(-90 36.4797 200.614)" fill="white" stroke="white"/>
<circle id="Ellipse 156" cx="33.2706" cy="202.396" r="0.356506" transform="rotate(-90 33.2706 202.396)" fill="white"/>
<circle id="Ellipse 157" cx="34.6964" cy="203.109" r="0.356506" transform="rotate(-90 34.6964 203.109)" fill="white"/>
<circle id="Ellipse 158" cx="35.4102" cy="204.535" r="0.356506" transform="rotate(-90 35.4102 204.535)" fill="white"/>
<circle id="Ellipse 159" cx="45.3917" cy="198.118" r="0.356506" transform="rotate(-90 45.3917 198.118)" fill="white"/>
<circle id="Ellipse 160" cx="45.3917" cy="200.257" r="0.356506" transform="rotate(-90 45.3917 200.257)" fill="white"/>
<circle id="Ellipse 162" cx="46.1046" cy="201.683" r="0.356506" transform="rotate(-90 46.1046 201.683)" fill="white"/>
<circle id="Ellipse 161" cx="0.356506" cy="0.356506" r="0.356506" transform="matrix(0 -1 -1 0 47.1748 199.9)" fill="white"/>
<circle id="Ellipse 163" cx="45.3917" cy="212.378" r="0.356506" transform="rotate(-90 45.3917 212.378)" fill="white"/>
<circle id="Ellipse 164" cx="45.3917" cy="214.518" r="0.356506" transform="rotate(-90 45.3917 214.518)" fill="white"/>
<circle id="Ellipse 165" cx="46.1046" cy="215.943" r="0.356506" transform="rotate(-90 46.1046 215.943)" fill="white"/>
<circle id="Ellipse 166" cx="0.356506" cy="0.356506" r="0.356506" transform="matrix(0 -1 -1 0 47.1748 214.161)" fill="white"/>
</g>
</g>
<g id="Group 248">
<g id="Ellipse 155_2" filter="url(#filter1_dddd_1550_6618)">
<circle cx="72.757" cy="189.576" r="12.1212" transform="rotate(-90 72.757 189.576)" fill="#92D5F1"/>
</g>
<g id="Group 242_2">
<circle id="Ellipse 109_2" cx="68.4797" cy="183.159" r="0.926025" transform="rotate(-90 68.4797 183.159)" fill="white" stroke="white"/>
<circle id="Ellipse 156_2" cx="65.2706" cy="184.941" r="0.356506" transform="rotate(-90 65.2706 184.941)" fill="white"/>
<circle id="Ellipse 157_2" cx="66.6964" cy="185.654" r="0.356506" transform="rotate(-90 66.6964 185.654)" fill="white"/>
<circle id="Ellipse 158_2" cx="67.4102" cy="187.081" r="0.356506" transform="rotate(-90 67.4102 187.081)" fill="white"/>
<circle id="Ellipse 159_2" cx="77.3917" cy="180.664" r="0.356506" transform="rotate(-90 77.3917 180.664)" fill="white"/>
<circle id="Ellipse 160_2" cx="77.3917" cy="182.803" r="0.356506" transform="rotate(-90 77.3917 182.803)" fill="white"/>
<circle id="Ellipse 162_2" cx="78.1046" cy="184.228" r="0.356506" transform="rotate(-90 78.1046 184.228)" fill="white"/>
<circle id="Ellipse 161_2" cx="0.356506" cy="0.356506" r="0.356506" transform="matrix(0 -1 -1 0 79.1748 182.446)" fill="white"/>
<circle id="Ellipse 163_2" cx="77.3917" cy="194.924" r="0.356506" transform="rotate(-90 77.3917 194.924)" fill="white"/>
<circle id="Ellipse 164_2" cx="77.3917" cy="197.062" r="0.356506" transform="rotate(-90 77.3917 197.062)" fill="white"/>
<circle id="Ellipse 165_2" cx="78.1046" cy="198.489" r="0.356506" transform="rotate(-90 78.1046 198.489)" fill="white"/>
<circle id="Ellipse 166_2" cx="0.356506" cy="0.356506" r="0.356506" transform="matrix(0 -1 -1 0 79.1748 196.706)" fill="white"/>
</g>
</g>
<g id="Group 247">
<g id="Ellipse 155_3" filter="url(#filter2_dddd_1550_6618)">
<circle cx="57.2423" cy="200.243" r="12.1212" transform="rotate(-90 57.2423 200.243)" fill="#FFEF77"/>
</g>
<g id="Group 242_3">
<circle id="Ellipse 109_3" cx="52.9641" cy="193.825" r="0.926025" transform="rotate(-90 52.9641 193.825)" fill="white" stroke="white"/>
<circle id="Ellipse 156_3" cx="49.7549" cy="195.608" r="0.356506" transform="rotate(-90 49.7549 195.608)" fill="white"/>
<circle id="Ellipse 157_3" cx="51.1807" cy="196.321" r="0.356506" transform="rotate(-90 51.1807 196.321)" fill="white"/>
<circle id="Ellipse 158_3" cx="51.8946" cy="197.747" r="0.356506" transform="rotate(-90 51.8946 197.747)" fill="white"/>
<circle id="Ellipse 159_3" cx="61.876" cy="191.33" r="0.356506" transform="rotate(-90 61.876 191.33)" fill="white"/>
<circle id="Ellipse 160_3" cx="61.876" cy="193.469" r="0.356506" transform="rotate(-90 61.876 193.469)" fill="white"/>
<circle id="Ellipse 162_3" cx="62.5889" cy="194.895" r="0.356506" transform="rotate(-90 62.5889 194.895)" fill="white"/>
<circle id="Ellipse 161_3" cx="0.356506" cy="0.356506" r="0.356506" transform="matrix(0 -1 -1 0 63.6592 193.112)" fill="white"/>
<circle id="Ellipse 163_3" cx="61.876" cy="205.59" r="0.356506" transform="rotate(-90 61.876 205.59)" fill="white"/>
<circle id="Ellipse 164_3" cx="61.876" cy="207.729" r="0.356506" transform="rotate(-90 61.876 207.729)" fill="white"/>
<circle id="Ellipse 165_3" cx="62.5889" cy="209.155" r="0.356506" transform="rotate(-90 62.5889 209.155)" fill="white"/>
<circle id="Ellipse 166_3" cx="0.356506" cy="0.356506" r="0.356506" transform="matrix(0 -1 -1 0 63.6592 207.373)" fill="white"/>
</g>
</g>
<g id="Group 249">
<g id="Ellipse 155_4" filter="url(#filter3_dddd_1550_6618)">
<circle cx="53.3634" cy="218.667" r="12.1212" transform="rotate(-90 53.3634 218.667)" fill="#E9B0F3"/>
</g>
<g id="Group 242_4">
<circle id="Ellipse 109_4" cx="49.0852" cy="212.25" r="0.926025" transform="rotate(-90 49.0852 212.25)" fill="white" stroke="white"/>
<circle id="Ellipse 156_4" cx="45.876" cy="214.032" r="0.356506" transform="rotate(-90 45.876 214.032)" fill="white"/>
<circle id="Ellipse 157_4" cx="47.3018" cy="214.745" r="0.356506" transform="rotate(-90 47.3018 214.745)" fill="white"/>
<circle id="Ellipse 158_4" cx="48.0157" cy="216.171" r="0.356506" transform="rotate(-90 48.0157 216.171)" fill="white"/>
<circle id="Ellipse 159_4" cx="57.9971" cy="209.754" r="0.356506" transform="rotate(-90 57.9971 209.754)" fill="white"/>
<circle id="Ellipse 160_4" cx="57.9971" cy="211.893" r="0.356506" transform="rotate(-90 57.9971 211.893)" fill="white"/>
<circle id="Ellipse 162_4" cx="58.71" cy="213.319" r="0.356506" transform="rotate(-90 58.71 213.319)" fill="white"/>
<circle id="Ellipse 161_4" cx="0.356506" cy="0.356506" r="0.356506" transform="matrix(0 -1 -1 0 59.7803 211.537)" fill="white"/>
<circle id="Ellipse 163_4" cx="57.9971" cy="224.015" r="0.356506" transform="rotate(-90 57.9971 224.015)" fill="white"/>
<circle id="Ellipse 164_4" cx="57.9971" cy="226.153" r="0.356506" transform="rotate(-90 57.9971 226.153)" fill="white"/>
<circle id="Ellipse 165_4" cx="58.71" cy="227.58" r="0.356506" transform="rotate(-90 58.71 227.58)" fill="white"/>
<circle id="Ellipse 166_4" cx="0.356506" cy="0.356506" r="0.356506" transform="matrix(0 -1 -1 0 59.7803 225.797)" fill="white"/>
</g>
</g>
<g id="Group 250">
<g id="Ellipse 155_5" filter="url(#filter4_dddd_1550_6618)">
<circle cx="71.7872" cy="211.879" r="12.1212" transform="rotate(-90 71.7872 211.879)" fill="#31D4B8"/>
</g>
<g id="Group 242_5">
<circle id="Ellipse 109_5" cx="67.51" cy="205.462" r="0.926025" transform="rotate(-90 67.51 205.462)" fill="white" stroke="white"/>
<circle id="Ellipse 156_5" cx="64.3008" cy="207.244" r="0.356506" transform="rotate(-90 64.3008 207.244)" fill="white"/>
<circle id="Ellipse 157_5" cx="65.7266" cy="207.957" r="0.356506" transform="rotate(-90 65.7266 207.957)" fill="white"/>
<circle id="Ellipse 158_5" cx="66.4405" cy="209.383" r="0.356506" transform="rotate(-90 66.4405 209.383)" fill="white"/>
<circle id="Ellipse 159_5" cx="76.4219" cy="202.966" r="0.356506" transform="rotate(-90 76.4219 202.966)" fill="white"/>
<circle id="Ellipse 160_5" cx="76.4219" cy="205.105" r="0.356506" transform="rotate(-90 76.4219 205.105)" fill="white"/>
<circle id="Ellipse 162_5" cx="77.1348" cy="206.531" r="0.356506" transform="rotate(-90 77.1348 206.531)" fill="white"/>
<circle id="Ellipse 161_5" cx="0.356506" cy="0.356506" r="0.356506" transform="matrix(0 -1 -1 0 78.2051 204.749)" fill="white"/>
<circle id="Ellipse 163_5" cx="76.4219" cy="217.227" r="0.356506" transform="rotate(-90 76.4219 217.227)" fill="white"/>
<circle id="Ellipse 164_5" cx="76.4219" cy="219.365" r="0.356506" transform="rotate(-90 76.4219 219.365)" fill="white"/>
<circle id="Ellipse 165_5" cx="77.1348" cy="220.791" r="0.356506" transform="rotate(-90 77.1348 220.791)" fill="white"/>
<circle id="Ellipse 166_5" cx="0.356506" cy="0.356506" r="0.356506" transform="matrix(0 -1 -1 0 78.2051 219.009)" fill="white"/>
</g>
</g>
<circle id="Ellipse 177" cx="66.9394" cy="189.576" r="49.9394" fill="#C1E5F4" fill-opacity="0.3"/>
</g>
<path id="Vector 206" d="M131.713 32.2311C128.222 29.9038 119.915 31.2614 116.197 32.2311C113.773 22.0493 103.591 1.20094 83.7126 1.20094C55.1005 1.20094 23.1059 109.807 69.6518 141.807C109.409 169.14 252.439 173.322 196.198 40.4736C167.296 -27.7942 145.45 5.0796 131.713 32.2311Z" fill="#C1E5F4"/>
<ellipse id="Ellipse 152" cx="89.0372" cy="39.8494" rx="12.7006" ry="22.303" transform="rotate(-11.1233 89.0372 39.8494)" fill="#92D5F1"/>
<path id="Vector 207" d="M175.607 71.4619C160.09 64.1593 103.851 81.1182 114.281 123.826C131.923 196.068 241.543 102.492 175.607 71.4619Z" fill="#92D5F1"/>
<g id="Mask Group">
<mask id="mask0_1550_6618" style="mask-type:alpha" maskUnits="userSpaceOnUse" x="131" y="0" width="78" height="77">
<path id="Vector 208" d="M176.03 1.45493C157.997 -5.51027 155.182 20.3639 131.909 32.0002C172.636 38.7882 199.953 65.6414 207.061 76.1214C213.762 40.8117 198.572 10.1614 176.03 1.45493Z" fill="#C1E5F4"/>
</mask>
<g mask="url(#mask0_1550_6618)">
<ellipse id="Ellipse 153" cx="171.461" cy="41.7893" rx="12.7006" ry="22.303" transform="rotate(-11.1233 171.461 41.7893)" fill="#92D5F1"/>
</g>
</g>
<ellipse id="Ellipse 154" cx="82.8397" cy="56.4435" rx="18.0709" ry="14.517" transform="rotate(-37.3552 82.8397 56.4435)" fill="white"/>
<g id="Group 244">
<g id="&#208;&#182;&#208;&#178;&#208;&#176;&#209;&#135;&#208;&#186;&#208;&#184;">
<g id="Group 240">
<circle id="Ellipse 155_6" cx="180.878" cy="122.182" r="16.4848" fill="#FFEF77"/>
<circle id="Ellipse 109_6" cx="189.605" cy="116.364" r="1.43939" fill="white" stroke="white"/>
</g>
<g id="Group 239">
<circle id="Ellipse 155_7" cx="164.394" cy="128.97" r="16.4848" fill="#E9B0F3"/>
<circle id="Ellipse 109_7" cx="158.575" cy="123.152" r="1.43939" fill="white" stroke="white"/>
</g>
<g id="Group 238">
<circle id="Ellipse 155_8" cx="140.151" cy="133.818" r="16.4848" fill="#92D5F1"/>
<circle id="Ellipse 109_8" cx="134.333" cy="128" r="1.43939" fill="white" stroke="white"/>
</g>
<g id="Group 237">
<circle id="Ellipse 155_9" cx="109.121" cy="133.818" r="16.4848" fill="#31D4B8"/>
<circle id="Ellipse 109_9" cx="105.242" cy="126.061" r="0.5" fill="white" stroke="white" stroke-width="0.939394"/>
</g>
<g id="Group 236">
<circle id="Ellipse 155_10" cx="85.8481" cy="125.091" r="16.4848" fill="#FFB44F"/>
<g id="Vector 164" filter="url(#filter5_d_1550_6618)">
<path d="M82.4545 113.455C82.4545 116.213 80.1919 116.903 79.0605 116.903C81.7757 116.903 82.4545 119.776 82.4545 121.213C82.4545 118.454 84.7171 117.19 85.8484 116.903C83.1333 116.903 82.4545 114.604 82.4545 113.455Z" fill="white"/>
<path d="M82.4545 113.455C82.4545 116.213 80.1919 116.903 79.0605 116.903C81.7757 116.903 82.4545 119.776 82.4545 121.213C82.4545 118.454 84.7171 117.19 85.8484 116.903C83.1333 116.903 82.4545 114.604 82.4545 113.455Z" stroke="white" stroke-linecap="round" stroke-linejoin="round"/>
</g>
</g>
</g>
</g>
<g id="&#208;&#179;&#208;&#187;&#208;&#176;&#208;&#183;">
<ellipse id="Ellipse 83" cx="91.6668" cy="108.121" rx="7.75758" ry="10.1818" fill="#2C6CC0"/>
<circle id="Ellipse 84" cx="89.7265" cy="104.727" r="1.93939" fill="white"/>
<circle id="Ellipse 85" cx="89.7274" cy="111.516" r="3.87879" fill="#92D5F1"/>
</g>
<g id="&#208;&#179;&#208;&#187;&#208;&#176;&#208;&#183;_2">
<ellipse id="Ellipse 83_2" cx="173.121" cy="106.182" rx="7.75758" ry="10.1818" fill="#2C6CC0"/>
<circle id="Ellipse 84_2" cx="171.182" cy="102.788" r="1.93939" fill="white"/>
<circle id="Ellipse 85_2" cx="171.182" cy="109.576" r="3.87879" fill="#92D5F1"/>
</g>
<path id="Vector 191" d="M129.918 117.099C124.357 125.564 117.788 122.877 114.036 119.115C113.145 118.221 111.693 118.038 110.734 118.86C109.839 119.627 109.726 120.984 110.523 121.853C119.619 131.776 126.409 128.842 129.677 124.661C130.569 123.519 131.855 122.667 133.304 122.667C134.556 122.667 135.711 123.309 136.533 124.254C143.139 131.849 150.369 125.787 153.639 120.685C154.308 119.639 153.904 118.293 152.851 117.635C151.721 116.928 150.243 117.27 149.425 118.322C143.092 126.473 138.471 122.08 136.225 117.591C135.587 116.315 134.345 115.394 132.918 115.394C131.698 115.394 130.588 116.079 129.918 117.099Z" fill="#2C6CC0"/>
<path id="Vector 210" d="M96.6392 231.083C62.1422 226.735 77.3126 184.025 89.7957 162.177C90.0742 161.69 90.4136 161.253 90.9155 161.002C100.391 156.258 160.364 163.976 165.536 167.015C165.776 167.156 165.906 167.399 166.016 167.655C170.51 178.103 169.264 192.106 166.959 202.626C166.035 206.842 170.726 211.578 174.849 212.856C178.105 213.865 181.247 216.15 183.303 220.606C192.456 243.305 153.084 236.688 128.795 229.622C126.399 228.925 123.906 230.097 122.445 232.119C115.485 241.746 105.349 237.15 99.7815 232.47C98.8954 231.725 97.7878 231.228 96.6392 231.083Z" fill="#FD658D"/>
<path id="Vector 208_2" d="M131.713 32.2311C128.222 29.9038 119.915 31.2614 116.197 32.2311C113.773 22.0493 103.591 1.20094 83.7126 1.20094C55.1005 1.20094 23.1059 109.807 69.6518 141.807C109.409 169.14 252.439 173.322 196.198 40.4736C167.296 -27.7942 145.45 5.0796 131.713 32.2311Z" fill="#C1E5F4" fill-opacity="0.3"/>
<g id="Group 245">
<path id="Vector 209" d="M164.626 152.249C135.825 159.734 105.478 155.088 89.8987 150.728C87.3366 150.011 84.544 151.27 84.0091 153.876C82.3467 161.976 84.5454 169.288 85.3636 169.697C111.104 182.007 148.774 179.757 166.282 176.835C167.567 176.621 168.73 175.907 169.294 174.732C171.778 169.559 171.55 161.823 170.721 155.994C170.316 153.145 167.411 151.525 164.626 152.249Z" fill="#FD658D" stroke="#EA4473" stroke-width="2"/>
<ellipse id="Ellipse 156_6" cx="101.074" cy="166.814" rx="4.06879" ry="3.26861" transform="rotate(-9.65669 101.074 166.814)" fill="white" fill-opacity="0.2"/>
<rect id="Rectangle 1498" x="93.6055" y="159.03" width="7.75758" height="9.69697" rx="2" fill="#FEB2C6"/>
</g>
<path id="Vector 211" d="M114.939 210.909C114.939 238.546 149.364 263.273 136.273 210.909" stroke="#EA4473"/>
<g id="Mask Group_2">
<mask id="mask1_1550_6618" style="mask-type:alpha" maskUnits="userSpaceOnUse" x="75" y="159" width="110" height="79">
<path id="Vector 215" d="M96.6392 231.083C62.1422 226.735 77.3126 184.025 89.7957 162.177C90.0742 161.69 90.4136 161.253 90.9155 161.002C100.391 156.258 160.364 163.976 165.536 167.015C165.776 167.156 165.906 167.399 166.016 167.655C170.51 178.103 169.264 192.106 166.959 202.626C166.035 206.842 170.726 211.578 174.849 212.856C178.105 213.865 181.247 216.15 183.303 220.606C192.456 243.305 153.084 236.688 128.795 229.622C126.399 228.925 123.906 230.097 122.445 232.119C115.485 241.746 105.349 237.15 99.7815 232.47C98.8954 231.725 97.7878 231.228 96.6392 231.083Z" fill="#FD658D"/>
</mask>
<g mask="url(#mask1_1550_6618)">
<circle id="Ellipse 174" cx="115.909" cy="234.667" r="7.75758" fill="#EA4473"/>
<circle id="Ellipse 175" cx="170.212" cy="237.575" r="7.75758" fill="#EA4473"/>
</g>
</g>
<path id="Vector 214" d="M114.939 210.909C114.939 238.546 149.364 263.273 136.273 210.909H114.939Z" fill="#FD658D"/>
<path id="Vector 212" d="M144.03 209.454C139.177 257.096 177.671 247.345 168.586 190.061" stroke="#EA4473"/>
<path id="Vector 213" d="M159.172 181.333L144.03 209.454C138.94 259.421 181.533 246.256 166.905 181.333H159.172Z" fill="#FD658D"/>
<g id="Mask Group_3">
<mask id="mask2_1550_6618" style="mask-type:alpha" maskUnits="userSpaceOnUse" x="143" y="171" width="27" height="69">
<path id="Vector 213_2" d="M164.394 171.636C185.728 244.848 138.696 261.818 144.03 209.454L164.394 171.636Z" fill="#FD658D"/>
</mask>
<g mask="url(#mask2_1550_6618)">
<circle id="Ellipse 167" cx="160.03" cy="233.697" r="7.75758" fill="#EA4473"/>
</g>
</g>
<g id="Mask Group_4">
<mask id="mask3_1550_6618" style="mask-type:alpha" maskUnits="userSpaceOnUse" x="114" y="210" width="26" height="33">
<path id="Vector 213_3" d="M114.939 210.909C114.939 238.546 149.364 263.273 136.273 210.909H114.939Z" fill="#C4C4C4" stroke="#EA4473"/>
</mask>
<g mask="url(#mask3_1550_6618)">
<circle id="Ellipse 168" cx="136.758" cy="235.636" r="7.75758" fill="#EA4473"/>
</g>
</g>
<g id="&#208;&#188;&#208;&#181;&#208;&#180;&#208;&#176;&#208;&#187;&#209;&#140;">
<circle id="Ellipse 169" cx="137.242" cy="197.333" r="17.9394" fill="#5E71FE"/>
<circle id="Ellipse 170" cx="137.727" cy="197.818" r="13.5758" fill="#92D5F1"/>
<g id="Mask Group_5">
<mask id="mask4_1550_6618" style="mask-type:alpha" maskUnits="userSpaceOnUse" x="119" y="179" width="37" height="37">
<circle id="Ellipse 170_2" cx="137.242" cy="197.333" r="17.9394" fill="#5E71FE"/>
</mask>
<g mask="url(#mask4_1550_6618)">
<circle id="Ellipse 171" cx="127.06" cy="188.121" r="9.69697" fill="#C1E5F4"/>
</g>
</g>
<g id="Mask Group_6">
<mask id="mask5_1550_6618" style="mask-type:alpha" maskUnits="userSpaceOnUse" x="124" y="184" width="28" height="28">
<circle id="Ellipse 173" cx="137.727" cy="197.818" r="13.5758" fill="#92D5F1"/>
</mask>
<g mask="url(#mask5_1550_6618)">
<circle id="Ellipse 172" cx="127.06" cy="188.121" r="9.69697" fill="white"/>
</g>
</g>
<path id="Ellipse 172_2" d="M140.532 200.577C139.185 202.037 137.629 202.926 136.281 203.253C134.918 203.583 134.011 203.304 133.515 202.847C133.02 202.389 132.669 201.508 132.889 200.122C133.106 198.753 133.867 197.131 135.215 195.67C136.562 194.21 138.118 193.321 139.465 192.995C140.829 192.664 141.736 192.943 142.231 193.401C142.727 193.858 143.078 194.739 142.858 196.125C142.641 197.494 141.88 199.117 140.532 200.577Z" fill="white" stroke="#5E71FE" stroke-width="4"/>
</g>
<g id="Group 252">
<g id="Group 241">
<circle id="Ellipse 155_11" cx="205.122" cy="226.909" r="16.4848" fill="#FFEF77"/>
<g id="Group 242_6">
<circle id="Ellipse 109_10" cx="213.849" cy="221.091" r="1.43939" fill="white" stroke="white"/>
<circle id="Ellipse 156_7" cx="211.424" cy="216.727" r="0.484848" fill="white"/>
<circle id="Ellipse 157_6" cx="210.455" cy="218.666" r="0.484848" fill="white"/>
<circle id="Ellipse 158_6" cx="208.516" cy="219.636" r="0.484848" fill="white"/>
<circle id="Ellipse 159_6" cx="217.243" cy="233.212" r="0.484848" fill="white"/>
<circle id="Ellipse 160_6" cx="214.333" cy="233.212" r="0.484848" fill="white"/>
<circle id="Ellipse 162_6" cx="212.394" cy="234.182" r="0.484848" fill="white"/>
<circle id="Ellipse 161_6" cx="0.484848" cy="0.484848" r="0.484848" transform="matrix(1 0 0 -1 214.818 235.636)" fill="white"/>
<circle id="Ellipse 163_6" cx="197.849" cy="233.212" r="0.484848" fill="white"/>
<circle id="Ellipse 164_6" cx="194.94" cy="233.212" r="0.484848" fill="white"/>
<circle id="Ellipse 165_6" cx="193" cy="234.182" r="0.484848" fill="white"/>
<circle id="Ellipse 166_6" cx="0.484848" cy="0.484848" r="0.484848" transform="matrix(1 0 0 -1 195.425 235.636)" fill="white"/>
</g>
</g>
<g id="Group 242_7">
<circle id="Ellipse 155_12" cx="180.879" cy="239.515" r="16.4848" transform="rotate(-90 180.879 239.515)" fill="#31D4B8"/>
<g id="Group 242_8">
<circle id="Ellipse 109_11" cx="175.061" cy="230.788" r="1.43939" transform="rotate(-90 175.061 230.788)" fill="white" stroke="white"/>
<circle id="Ellipse 156_8" cx="170.698" cy="233.212" r="0.484848" transform="rotate(-90 170.698 233.212)" fill="white"/>
<circle id="Ellipse 157_7" cx="172.637" cy="234.182" r="0.484848" transform="rotate(-90 172.637 234.182)" fill="white"/>
<circle id="Ellipse 158_7" cx="173.607" cy="236.121" r="0.484848" transform="rotate(-90 173.607 236.121)" fill="white"/>
<circle id="Ellipse 159_7" cx="187.182" cy="227.394" r="0.484848" transform="rotate(-90 187.182 227.394)" fill="white"/>
<circle id="Ellipse 160_7" cx="187.182" cy="230.303" r="0.484848" transform="rotate(-90 187.182 230.303)" fill="white"/>
<circle id="Ellipse 162_7" cx="188.152" cy="232.242" r="0.484848" transform="rotate(-90 188.152 232.242)" fill="white"/>
<circle id="Ellipse 161_7" cx="0.484848" cy="0.484848" r="0.484848" transform="matrix(0 -1 -1 0 189.606 229.818)" fill="white"/>
<circle id="Ellipse 163_7" cx="187.182" cy="246.788" r="0.484848" transform="rotate(-90 187.182 246.788)" fill="white"/>
<circle id="Ellipse 164_7" cx="187.182" cy="249.697" r="0.484848" transform="rotate(-90 187.182 249.697)" fill="white"/>
<circle id="Ellipse 165_7" cx="188.152" cy="251.636" r="0.484848" transform="rotate(-90 188.152 251.636)" fill="white"/>
<circle id="Ellipse 166_7" cx="0.484848" cy="0.484848" r="0.484848" transform="matrix(0 -1 -1 0 189.606 249.212)" fill="white"/>
</g>
</g>
<g id="Group 243">
<circle id="Ellipse 155_13" cx="79.061" cy="227.878" r="16.4848" transform="rotate(-90 79.061 227.878)" fill="#EA4473"/>
<g id="Group 242_9">
<circle id="Ellipse 109_12" cx="73.2431" cy="219.151" r="1.43939" transform="rotate(-90 73.2431 219.151)" fill="white" stroke="white"/>
<circle id="Ellipse 156_9" cx="68.8794" cy="221.575" r="0.484848" transform="rotate(-90 68.8794 221.575)" fill="white"/>
<circle id="Ellipse 157_8" cx="70.8188" cy="222.545" r="0.484848" transform="rotate(-90 70.8188 222.545)" fill="white"/>
<circle id="Ellipse 158_8" cx="71.7886" cy="224.484" r="0.484848" transform="rotate(-90 71.7886 224.484)" fill="white"/>
<circle id="Ellipse 159_8" cx="85.3647" cy="215.757" r="0.484848" transform="rotate(-90 85.3647 215.757)" fill="white"/>
<circle id="Ellipse 160_8" cx="85.3647" cy="218.667" r="0.484848" transform="rotate(-90 85.3647 218.667)" fill="white"/>
<circle id="Ellipse 162_8" cx="86.3345" cy="220.605" r="0.484848" transform="rotate(-90 86.3345 220.605)" fill="white"/>
<circle id="Ellipse 161_8" cx="0.484848" cy="0.484848" r="0.484848" transform="matrix(0 -1 -1 0 87.7881 218.182)" fill="white"/>
<circle id="Ellipse 163_8" cx="85.3647" cy="235.151" r="0.484848" transform="rotate(-90 85.3647 235.151)" fill="white"/>
<circle id="Ellipse 164_8" cx="85.3647" cy="238.06" r="0.484848" transform="rotate(-90 85.3647 238.06)" fill="white"/>
<circle id="Ellipse 165_8" cx="86.3345" cy="240" r="0.484848" transform="rotate(-90 86.3345 240)" fill="white"/>
<circle id="Ellipse 166_8" cx="0.484848" cy="0.484848" r="0.484848" transform="matrix(0 -1 -1 0 87.7881 237.575)" fill="white"/>
</g>
</g>
</g>
<ellipse id="Ellipse 155_14" cx="95.581" cy="187.892" rx="10.501" ry="8.43583" transform="rotate(-58.972 95.581 187.892)" fill="white" fill-opacity="0.2"/>
</g>
<defs>
<filter id="filter0_dddd_1550_6618" x="-3.36426" y="186.91" width="88.2422" height="88.2422" filterUnits="userSpaceOnUse" color-interpolation-filters="sRGB">
<feFlood flood-opacity="0" result="BackgroundImageFix"/>
<feColorMatrix in="SourceAlpha" type="matrix" values="0 0 0 0 0 0 0 0 0 0 0 0 0 0 0 0 0 0 127 0" result="hardAlpha"/>
<feOffset/>
<feGaussianBlur stdDeviation="0.5"/>
<feColorMatrix type="matrix" values="0 0 0 0 0.156863 0 0 0 0 0.160784 0 0 0 0 0.282353 0 0 0 0.04 0"/>
<feBlend mode="normal" in2="BackgroundImageFix" result="effect1_dropShadow_1550_6618"/>
<feColorMatrix in="SourceAlpha" type="matrix" values="0 0 0 0 0 0 0 0 0 0 0 0 0 0 0 0 0 0 127 0" result="hardAlpha"/>
<feOffset dy="4"/>
<feGaussianBlur stdDeviation="4"/>
<feColorMatrix type="matrix" values="0 0 0 0 0.156863 0 0 0 0 0.160784 0 0 0 0 0.282353 0 0 0 0.04 0"/>
<feBlend mode="normal" in2="effect1_dropShadow_1550_6618" result="effect2_dropShadow_1550_6618"/>
<feColorMatrix in="SourceAlpha" type="matrix" values="0 0 0 0 0 0 0 0 0 0 0 0 0 0 0 0 0 0 127 0" result="hardAlpha"/>
<feOffset dy="16"/>
<feGaussianBlur stdDeviation="12"/>
<feColorMatrix type="matrix" values="0 0 0 0 0.156863 0 0 0 0 0.160784 0 0 0 0 0.282353 0 0 0 0.04 0"/>
<feBlend mode="normal" in2="effect2_dropShadow_1550_6618" result="effect3_dropShadow_1550_6618"/>
<feColorMatrix in="SourceAlpha" type="matrix" values="0 0 0 0 0 0 0 0 0 0 0 0 0 0 0 0 0 0 127 0" result="hardAlpha"/>
<feOffset dy="24"/>
<feGaussianBlur stdDeviation="16"/>
<feColorMatrix type="matrix" values="0 0 0 0 0.156863 0 0 0 0 0.160784 0 0 0 0 0.282353 0 0 0 0.04 0"/>
<feBlend mode="normal" in2="effect3_dropShadow_1550_6618" result="effect4_dropShadow_1550_6618"/>
<feBlend mode="normal" in="SourceGraphic" in2="effect4_dropShadow_1550_6618" result="shape"/>
</filter>
<filter id="filter1_dddd_1550_6618" x="28.6357" y="169.455" width="88.2422" height="88.2422" filterUnits="userSpaceOnUse" color-interpolation-filters="sRGB">
<feFlood flood-opacity="0" result="BackgroundImageFix"/>
<feColorMatrix in="SourceAlpha" type="matrix" values="0 0 0 0 0 0 0 0 0 0 0 0 0 0 0 0 0 0 127 0" result="hardAlpha"/>
<feOffset/>
<feGaussianBlur stdDeviation="0.5"/>
<feColorMatrix type="matrix" values="0 0 0 0 0.156863 0 0 0 0 0.160784 0 0 0 0 0.282353 0 0 0 0.04 0"/>
<feBlend mode="normal" in2="BackgroundImageFix" result="effect1_dropShadow_1550_6618"/>
<feColorMatrix in="SourceAlpha" type="matrix" values="0 0 0 0 0 0 0 0 0 0 0 0 0 0 0 0 0 0 127 0" result="hardAlpha"/>
<feOffset dy="4"/>
<feGaussianBlur stdDeviation="4"/>
<feColorMatrix type="matrix" values="0 0 0 0 0.156863 0 0 0 0 0.160784 0 0 0 0 0.282353 0 0 0 0.04 0"/>
<feBlend mode="normal" in2="effect1_dropShadow_1550_6618" result="effect2_dropShadow_1550_6618"/>
<feColorMatrix in="SourceAlpha" type="matrix" values="0 0 0 0 0 0 0 0 0 0 0 0 0 0 0 0 0 0 127 0" result="hardAlpha"/>
<feOffset dy="16"/>
<feGaussianBlur stdDeviation="12"/>
<feColorMatrix type="matrix" values="0 0 0 0 0.156863 0 0 0 0 0.160784 0 0 0 0 0.282353 0 0 0 0.04 0"/>
<feBlend mode="normal" in2="effect2_dropShadow_1550_6618" result="effect3_dropShadow_1550_6618"/>
<feColorMatrix in="SourceAlpha" type="matrix" values="0 0 0 0 0 0 0 0 0 0 0 0 0 0 0 0 0 0 127 0" result="hardAlpha"/>
<feOffset dy="24"/>
<feGaussianBlur stdDeviation="16"/>
<feColorMatrix type="matrix" values="0 0 0 0 0.156863 0 0 0 0 0.160784 0 0 0 0 0.282353 0 0 0 0.04 0"/>
<feBlend mode="normal" in2="effect3_dropShadow_1550_6618" result="effect4_dropShadow_1550_6618"/>
<feBlend mode="normal" in="SourceGraphic" in2="effect4_dropShadow_1550_6618" result="shape"/>
</filter>
<filter id="filter2_dddd_1550_6618" x="13.1211" y="180.122" width="88.2422" height="88.2422" filterUnits="userSpaceOnUse" color-interpolation-filters="sRGB">
<feFlood flood-opacity="0" result="BackgroundImageFix"/>
<feColorMatrix in="SourceAlpha" type="matrix" values="0 0 0 0 0 0 0 0 0 0 0 0 0 0 0 0 0 0 127 0" result="hardAlpha"/>
<feOffset/>
<feGaussianBlur stdDeviation="0.5"/>
<feColorMatrix type="matrix" values="0 0 0 0 0.156863 0 0 0 0 0.160784 0 0 0 0 0.282353 0 0 0 0.04 0"/>
<feBlend mode="normal" in2="BackgroundImageFix" result="effect1_dropShadow_1550_6618"/>
<feColorMatrix in="SourceAlpha" type="matrix" values="0 0 0 0 0 0 0 0 0 0 0 0 0 0 0 0 0 0 127 0" result="hardAlpha"/>
<feOffset dy="4"/>
<feGaussianBlur stdDeviation="4"/>
<feColorMatrix type="matrix" values="0 0 0 0 0.156863 0 0 0 0 0.160784 0 0 0 0 0.282353 0 0 0 0.04 0"/>
<feBlend mode="normal" in2="effect1_dropShadow_1550_6618" result="effect2_dropShadow_1550_6618"/>
<feColorMatrix in="SourceAlpha" type="matrix" values="0 0 0 0 0 0 0 0 0 0 0 0 0 0 0 0 0 0 127 0" result="hardAlpha"/>
<feOffset dy="16"/>
<feGaussianBlur stdDeviation="12"/>
<feColorMatrix type="matrix" values="0 0 0 0 0.156863 0 0 0 0 0.160784 0 0 0 0 0.282353 0 0 0 0.04 0"/>
<feBlend mode="normal" in2="effect2_dropShadow_1550_6618" result="effect3_dropShadow_1550_6618"/>
<feColorMatrix in="SourceAlpha" type="matrix" values="0 0 0 0 0 0 0 0 0 0 0 0 0 0 0 0 0 0 127 0" result="hardAlpha"/>
<feOffset dy="24"/>
<feGaussianBlur stdDeviation="16"/>
<feColorMatrix type="matrix" values="0 0 0 0 0.156863 0 0 0 0 0.160784 0 0 0 0 0.282353 0 0 0 0.04 0"/>
<feBlend mode="normal" in2="effect3_dropShadow_1550_6618" result="effect4_dropShadow_1550_6618"/>
<feBlend mode="normal" in="SourceGraphic" in2="effect4_dropShadow_1550_6618" result="shape"/>
</filter>
<filter id="filter3_dddd_1550_6618" x="9.24219" y="198.546" width="88.2422" height="88.2422" filterUnits="userSpaceOnUse" color-interpolation-filters="sRGB">
<feFlood flood-opacity="0" result="BackgroundImageFix"/>
<feColorMatrix in="SourceAlpha" type="matrix" values="0 0 0 0 0 0 0 0 0 0 0 0 0 0 0 0 0 0 127 0" result="hardAlpha"/>
<feOffset/>
<feGaussianBlur stdDeviation="0.5"/>
<feColorMatrix type="matrix" values="0 0 0 0 0.156863 0 0 0 0 0.160784 0 0 0 0 0.282353 0 0 0 0.04 0"/>
<feBlend mode="normal" in2="BackgroundImageFix" result="effect1_dropShadow_1550_6618"/>
<feColorMatrix in="SourceAlpha" type="matrix" values="0 0 0 0 0 0 0 0 0 0 0 0 0 0 0 0 0 0 127 0" result="hardAlpha"/>
<feOffset dy="4"/>
<feGaussianBlur stdDeviation="4"/>
<feColorMatrix type="matrix" values="0 0 0 0 0.156863 0 0 0 0 0.160784 0 0 0 0 0.282353 0 0 0 0.04 0"/>
<feBlend mode="normal" in2="effect1_dropShadow_1550_6618" result="effect2_dropShadow_1550_6618"/>
<feColorMatrix in="SourceAlpha" type="matrix" values="0 0 0 0 0 0 0 0 0 0 0 0 0 0 0 0 0 0 127 0" result="hardAlpha"/>
<feOffset dy="16"/>
<feGaussianBlur stdDeviation="12"/>
<feColorMatrix type="matrix" values="0 0 0 0 0.156863 0 0 0 0 0.160784 0 0 0 0 0.282353 0 0 0 0.04 0"/>
<feBlend mode="normal" in2="effect2_dropShadow_1550_6618" result="effect3_dropShadow_1550_6618"/>
<feColorMatrix in="SourceAlpha" type="matrix" values="0 0 0 0 0 0 0 0 0 0 0 0 0 0 0 0 0 0 127 0" result="hardAlpha"/>
<feOffset dy="24"/>
<feGaussianBlur stdDeviation="16"/>
<feColorMatrix type="matrix" values="0 0 0 0 0.156863 0 0 0 0 0.160784 0 0 0 0 0.282353 0 0 0 0.04 0"/>
<feBlend mode="normal" in2="effect3_dropShadow_1550_6618" result="effect4_dropShadow_1550_6618"/>
<feBlend mode="normal" in="SourceGraphic" in2="effect4_dropShadow_1550_6618" result="shape"/>
</filter>
<filter id="filter4_dddd_1550_6618" x="27.666" y="191.758" width="88.2422" height="88.2422" filterUnits="userSpaceOnUse" color-interpolation-filters="sRGB">
<feFlood flood-opacity="0" result="BackgroundImageFix"/>
<feColorMatrix in="SourceAlpha" type="matrix" values="0 0 0 0 0 0 0 0 0 0 0 0 0 0 0 0 0 0 127 0" result="hardAlpha"/>
<feOffset/>
<feGaussianBlur stdDeviation="0.5"/>
<feColorMatrix type="matrix" values="0 0 0 0 0.156863 0 0 0 0 0.160784 0 0 0 0 0.282353 0 0 0 0.04 0"/>
<feBlend mode="normal" in2="BackgroundImageFix" result="effect1_dropShadow_1550_6618"/>
<feColorMatrix in="SourceAlpha" type="matrix" values="0 0 0 0 0 0 0 0 0 0 0 0 0 0 0 0 0 0 127 0" result="hardAlpha"/>
<feOffset dy="4"/>
<feGaussianBlur stdDeviation="4"/>
<feColorMatrix type="matrix" values="0 0 0 0 0.156863 0 0 0 0 0.160784 0 0 0 0 0.282353 0 0 0 0.04 0"/>
<feBlend mode="normal" in2="effect1_dropShadow_1550_6618" result="effect2_dropShadow_1550_6618"/>
<feColorMatrix in="SourceAlpha" type="matrix" values="0 0 0 0 0 0 0 0 0 0 0 0 0 0 0 0 0 0 127 0" result="hardAlpha"/>
<feOffset dy="16"/>
<feGaussianBlur stdDeviation="12"/>
<feColorMatrix type="matrix" values="0 0 0 0 0.156863 0 0 0 0 0.160784 0 0 0 0 0.282353 0 0 0 0.04 0"/>
<feBlend mode="normal" in2="effect2_dropShadow_1550_6618" result="effect3_dropShadow_1550_6618"/>
<feColorMatrix in="SourceAlpha" type="matrix" values="0 0 0 0 0 0 0 0 0 0 0 0 0 0 0 0 0 0 127 0" result="hardAlpha"/>
<feOffset dy="24"/>
<feGaussianBlur stdDeviation="16"/>
<feColorMatrix type="matrix" values="0 0 0 0 0.156863 0 0 0 0 0.160784 0 0 0 0 0.282353 0 0 0 0.04 0"/>
<feBlend mode="normal" in2="effect3_dropShadow_1550_6618" result="effect4_dropShadow_1550_6618"/>
<feBlend mode="normal" in="SourceGraphic" in2="effect4_dropShadow_1550_6618" result="shape"/>
</filter>
<filter id="filter5_d_1550_6618" x="76.3605" y="110.755" width="12.1881" height="13.1578" filterUnits="userSpaceOnUse" color-interpolation-filters="sRGB">
<feFlood flood-opacity="0" result="BackgroundImageFix"/>
<feColorMatrix in="SourceAlpha" type="matrix" values="0 0 0 0 0 0 0 0 0 0 0 0 0 0 0 0 0 0 127 0" result="hardAlpha"/>
<feMorphology radius="0.2" operator="dilate" in="SourceAlpha" result="effect1_dropShadow_1550_6618"/>
<feOffset/>
<feGaussianBlur stdDeviation="1"/>
<feColorMatrix type="matrix" values="0 0 0 0 1 0 0 0 0 1 0 0 0 0 1 0 0 0 1 0"/>
<feBlend mode="normal" in2="BackgroundImageFix" result="effect1_dropShadow_1550_6618"/>
<feBlend mode="normal" in="SourceGraphic" in2="effect1_dropShadow_1550_6618" result="shape"/>
</filter>
</defs>
</svg>
