<svg width="24" height="24" viewBox="0 0 24 24" fill="none" xmlns="http://www.w3.org/2000/svg">
<mask id="mask0_5444_6718" style="mask-type:alpha" maskUnits="userSpaceOnUse" x="0" y="2" width="24" height="20">
<path d="M6.1069 2.3482L0.348197 8.1069C-0.112208 8.56731 -0.116592 9.31241 0.338366 9.7782L11.1495 20.8468C11.616 21.3243 12.384 21.3243 12.8505 20.8468L23.6616 9.7782C24.1166 9.31241 24.1122 8.56731 23.6518 8.1069L17.8931 2.3482C17.4288 1.88393 16.6761 1.88393 16.2119 2.3482L12.8406 5.71943C12.3764 6.18369 11.6236 6.18369 11.1594 5.71943L7.78814 2.3482C7.32388 1.88393 6.57116 1.88393 6.1069 2.3482Z" fill="#D9D9D9"/>
</mask>
<g mask="url(#mask0_5444_6718)">
<path d="M6.94752 1.50781L-0.482594 8.93793L12 21.7177L24.4826 8.93793L17.0525 1.50781L12 6.56029L6.94752 1.50781Z" fill="#FF8450"/>
<path d="M6.94752 1.50748L11.9912 6.5512L11.9912 11.6124L9.46938 9.07307L6.94752 6.55995L6.94752 1.50748Z" fill="url(#paint0_linear_5444_6718)"/>
<path d="M-0.473673 8.93989L4.56988 8.93764L11.9802 16.6452L11.9802 21.7152L9.45838 19.1671L-0.473673 8.93989Z" fill="url(#paint1_linear_5444_6718)"/>
<path d="M6.94754 1.50783L6.94754 6.56031L4.56294 8.93795L-0.482594 8.93793L6.94754 1.50783Z" fill="url(#paint2_linear_5444_6718)"/>
<path d="M17.0415 1.50748L11.9978 6.5512L11.9978 11.6124L14.5196 9.07307L17.0415 6.55995L17.0415 1.50748Z" fill="url(#paint3_linear_5444_6718)"/>
<path d="M24.4627 8.93989L19.4191 8.93764L12.0088 16.6452L12.0088 21.7152L14.5306 19.1671L24.4627 8.93989Z" fill="url(#paint4_linear_5444_6718)"/>
<path d="M17.0415 1.50783L17.0415 6.56031L19.4261 8.93795L24.4716 8.93793L17.0415 1.50783Z" fill="url(#paint5_linear_5444_6718)"/>
</g>
<defs>
<linearGradient id="paint0_linear_5444_6718" x1="5.68221" y1="2.77278" x2="13.2565" y2="10.3471" gradientUnits="userSpaceOnUse">
<stop stop-color="#FFC87F"/>
<stop offset="1" stop-color="#FF9F1F"/>
</linearGradient>
<linearGradient id="paint1_linear_5444_6718" x1="0.707421" y1="7.75878" x2="13.322" y2="20.3734" gradientUnits="userSpaceOnUse">
<stop stop-color="#FF3436"/>
<stop offset="1" stop-color="#FF7374"/>
</linearGradient>
<linearGradient id="paint2_linear_5444_6718" x1="8.21065" y1="2.77094" x2="0.780535" y2="10.2011" gradientUnits="userSpaceOnUse">
<stop stop-color="#FF6209"/>
<stop offset="1" stop-color="#FF8730"/>
</linearGradient>
<linearGradient id="paint3_linear_5444_6718" x1="18.3068" y1="2.77278" x2="10.7325" y2="10.3471" gradientUnits="userSpaceOnUse">
<stop stop-color="#FF6209"/>
<stop offset="1" stop-color="#FF8730"/>
</linearGradient>
<linearGradient id="paint4_linear_5444_6718" x1="12" y1="19" x2="22" y2="8.49995" gradientUnits="userSpaceOnUse">
<stop stop-color="#FF3436"/>
<stop offset="1" stop-color="#FF7374"/>
</linearGradient>
<linearGradient id="paint5_linear_5444_6718" x1="15.7784" y1="2.77094" x2="23.2085" y2="10.2011" gradientUnits="userSpaceOnUse">
<stop stop-color="#FFC87F"/>
<stop offset="1" stop-color="#FF9F1F"/>
</linearGradient>
</defs>
</svg>
